<?xml version="1.0" encoding="UTF-8"?>
<svg version="1.1" viewBox="0 0 1024 1024" width="1280" height="1280" xmlns="http://www.w3.org/2000/svg">
<path transform="translate(0)" d="m0 0h1024v1024h-1024z" fill="#E2E2DD"/>
<path transform="translate(536,167)" d="m0 0h23l28 4h13l8-1h10l-7 15-1 4v16l8 1 25 9 17 8 23 13h40l14 3 12 5 10 6 10 10 6 10 2 5v13l-4 5-5 3-6 10-4 4 2 4 7 8 2 2 10 2 3 5 15 20 9 15 7 13v2l4-1h9l-1 4-5 5-1 3h5l3 5-1 11-4 10 6 18 6-1 8 6 5 7 4 12v10l-3 10-6 8-5 3h-2v39l-2 18-1 4 5 2 4 6 5 18 9 14 2 4-1 4-8 4-11 15-8 12-9 10-14 9-4 1-3 9-11 21-14 21-6 8v18l-4 22-1 11-1 3h-8l-15-3-11-4-5 2-11 9-21 14-21 12-27 13-21 8-19 6-8 3-10 8-12 9-17 8-17 5-6 1h-14l-9-1h-12l-12 5-3 2h-3l1-6 2-7v-11l-3-10-13-1-36-6-8-3-9 1-11 2-12-1-8-4-5-5-7 6h-11l-14-7-12-12-8-13-2-12-16-9-16-11-17-13-13-12-3-3-17-4-18-8-17-7-11-3-3-5-2-17v-19l4-24 7-20 4-7-1-6-10-26-4-12-18-13-4-2 1-5 11-8 4-1-1-2-1-10-1-31-13-29-1-4 9-3 16-1 5-21 8-23 8-18 7-14-1-7-3-10-3-25-1-6v-13l3-1 18-1 6-15 9-14 7-10 5-10 4-10h2l1 2h10l13 6 5-1 13-10 18-11 15-7h2l2-7 7-9 8-6h2l2-4 5-5 15-8 18-6 24-5 24-2 26-1 12-6 19-6 21-5z" fill="#10525A"/>
<path transform="translate(536,167)" d="m0 0h23l28 4h13l8-1h10l-7 15-1 4v16l8 1 25 9 17 8 23 13h40l14 3 12 5 10 6 10 10 6 10 2 5v13l-4 5-5 3-6 10-4 4 2 4 7 8 2 2 10 2 3 5 15 20 9 15 7 13v2h12l-4 1-1 2-5 5-5 4 2-4 4-4-10 2-13 7-10 8-1-2-19-1-6 3-4 4-6 7-2 5-1 27-4 19-2 7v13l5 17 1 8 5-13v-7l-3-7 1-3 6 13v8l-4 10-5 7h-2l-1 3-6 4h-4l-5-5-9-2-8 2-9 6-3 3h-2v-26h1l3 19 2 1-2-20-3-11-5-22-5-14-3-5v-3l8-5 4-5 2-4v-11l-3-6-5-4-8-3-1-5h-2l-4-5-9-7-4-4-13-8-10-6-11-5-11-4-16-3-33-2h-14l-25 2-24 4-22 5-13 4-5 3h-3v2l10-1 9-3 13-2 17-1 4 1h12l1 3-30 3-8 1-9 3-12 3-15 6-10 5-3 5-4 2-10-1-5-3-5-2-12-8-10-9v-2l-4-2-4-3v2h-2l-2 5h-2l-2 5-4 5h-2v2h-2v2h-2l-3 6h-2v2l-4-1-11-4h-14l-10 3-10 6-8 9-8 16h-16l1 5-2-2-5-10-9-6-15-5-9-6-8-6-1-1v11l4 22 5 12 5 13-1 5-3-4-7-20-4-20-1-7v-18l1-2-5 4-7 10-4 10-1 5v18l-5 4h-3v26l3 10 7 9 12 9 27 7 1-1-2-2 5 1 3 1-9-12-10-15-13-24 1-3 14 25 8 12 6 8h2l6 10 10 13 9 10 5 5h1l-6-7-4-7-4-13-2-8v-25l1-13v-17l2 4v50l2 8 1 2v-6l3-2 9 3 8 4 6 5 5 9-13 4-3 6v7l2 1-1 5-6 23-2 2-20 1-20 4-12 5-9 6-11 11-7 10-4 8-3 3-5 13-2 6h-2v-6l5-13 4-7-1-6-10-26-4-12-18-13-4-2 1-5 11-8 4-1-1-2-1-10-1-31-13-29-1-4 9-3 16-1 5-21 8-23 8-18 7-14-1-7-3-10-3-25-1-6v-13l3-1 18-1 6-15 9-14 7-10 5-10 4-10h2l1 2h10l13 6 5-1 13-10 18-11 15-7h2l2-7 7-9 8-6h2l2-4 5-5 15-8 18-6 24-5 24-2 26-1 12-6 19-6 21-5z" fill="#164145"/>
<path transform="translate(817,390)" d="m0 0 1 3h7l2 4-1 11-4 10 6 18 6-1 8 6 5 7 4 12v10l-3 10-6 8-5 3h-2v39l-2 18-1 4 5 2 4 6 5 18 9 14 2 4-1 4-8 4-11 15-8 12-9 10-14 9-4 1-3 9-11 21-14 21-6 8v18l-4 22-1 11-1 3h-8l-15-3-11-4-5 2-11 9-21 14-21 12-27 13-21 8-19 6-8 3-10 8-12 9-17 8-17 5-6 1h-14l-9-1h-12l-12 5-3 2h-3l1-6 2-7v-11l-3-10-13-1-36-6-8-3-9 1-11 2-12-1-8-4-5-5-7 6h-11l-14-7-12-12-8-13-2-12-16-9-16-11-11-8v-4h-2l-5-6-3-2 1-3 10 9 3 1v2h2l2 4h4v2l5 2 5 4 6 4v2l8 2-5-6v-2h-2l-3-5-3-4h8l1 1 9-1 1 1 9 1h48l24-4 24-8 27-12 19-8-9 2-12 3-8 1h-9l-15-2-15-4-18-7-9-2v-1h7l22 8 16 4 8 1h17l25-6 8-1 1-1-23 3h-31l-16-3-16-5 3-1 12 2h20l5 2 1-3 14-1-1 2 9-1 4-4 21-5 4-1h6v-2l11-4 8-2 17-4 15-5 11-8 3-4h2l2-5 2-3-1-2 2-2 2-4h2l1-5h2v-3l7-1v2l-3 1 7 3 6 7 2-1-1-5h-5l-5-5v-2h5l3 2 5 1 21 1 26 2h28l3-1-9-3-13-4-5-5-6-10-2-5 9-11 8-14 5-15 3-1v3l2-1v-2l3-1 2-4v15l2 11 4 8 8 8 6 4 5 2 9 1 9-2 9-6 6-7 7-14 3-13v-6h-12l-27 6-7 3 6 9 3 3 11-3h7l-6 9-7 6-9-1-5-4-4-8-1-12 4-16 6-13 7-11 8-7 4-1 4 5 7-1 7-6 1-2h2l1-3 2-1v-3l6-5 7-8 4-1 7-9 7-11 1 2-7 12-2 4h-2v3l8-10 8-17 7-21v-2l-2 2 2-9 6-20 7-17 1 3-5 16-6 27-8 23-8 16-7 10 21-6 8-1 14-7 9-7 8-9 5-10 2-7v-11l-13-34v-2l-6 4 2-4 2-2v-19z" fill="#154145"/>
<path transform="translate(536,171)" d="m0 0h23l25 4h27l-2 5-2 4-1 23-5-5v4l2 3v11l2 12 8 13v2l-8-1-16-3h-15l-13 2-7 3 14-3h16l19 3 10 5 4 4-1 5-10 15-10 16-8 8-10 6-8 5-4 6-4 10-8 8-10 4-20 3-5 6-3 3h-4l-1 4-10 4-16 4-13 4-8 2-10 5-10 9-7 15-3-1-1-3-5 1-7-5-9-13-6-10-8-20-3-11-1-8v-10l2-15h-2v-10l3-8 1-7 13-26 14-21 3-4 1-3 8-7 12-11 17-12 21-11 13-5 28-7z" fill="#156A97"/>
<path transform="translate(576,643)" d="m0 0 8 2 7 8 2-1-1-4 6 2 11 8 8 8 8 14 2 4v4h2l2 6v4h3l1 14v24l-2 11-4 9-6 16-6 13-9 16-3 5h-2v2h-2l-2 5-10 11-5 4-9 7-11 6-14 6-11 3-16 1-11-1h-15l-11 4v-18l-1-8-1-4-5-3-8-7-8-4-2-5h-2l-2-9-2-17v-12l5-14 9-15 10-11 4-6h2l1-14 5-5 10-5 22-3 13-4 16-8 9-7 7-11 4-10 3-10z" fill="#166A97"/>
<path transform="translate(397,512)" d="m0 0h9l6 4 4 6-1 7-5 3-6-2-1-1-7 1-8 9-8 14-6 15-3 13v17l3 6 4 3h8l8-4 10-13 8 4 5 5-6 10-8 9-10 6-7 2h-15l-10-5-8-12-3 23-4 16-6 15-6 10-10 13-1-3 3-13 2-10-5 5-2 1v-9l-7 12-2 2-6 21h-2l2-12 4-13v-3h2l1-4h-3l-2 4-12 13-8 8-3 1v-2h2l2-4 8-7 10-11 4-5-2-18 4-9-10 3-21 6-10 2-16 8-16 10-5 4-2-1 10-8 22-14h2v-2h-11l-8-1h-35l3-2 28-3 18-1-18-3-11-1h-18l-11 1-3 12-3 8-1-4v-6l-2 2 1-6 1 2h2l3-12 5-11 4-4 5-9 11-12 9-8 13-6 16-4 7-1 20-1 2-6 5-18 2-5-3-1v-7l4-7 11-3 7-1h22l6 2-1 9-3 8-14-3h-11l-9 30 11 1 10 5 8 8v1l-10 1 9 2 8 5 2 2 2-5 3-16 6-16 8-16 9-12 9-9z" fill="#5F8D50"/>
<path transform="translate(767,533)" d="m0 0h21l13 3 11 6 10 8 9 12 9 14 1 3h2l6 11 3 3 1 4-6 4-7 8-4 7h-2l-2 5-7 11-5 5h-2v2l-11 7-16 8-10 3-6 1h-15l-12-2-26-8-17-8-1-3-4-1-12-11-4-5v-2l-3-1-1-5h-2l-1-4 7 6 6 4 5 2 9 1 9-2 9-6 6-7 7-14 3-13v-6h-12l-27 6-7 3 6 9 3 3 11-3h7l-6 9-7 6-9-1-5-4-4-8-1-12 1-6 1 3 10-5h3v-2l7-4 1-2 8-4 5-5h2v-2h2l2-4 5-4 4 1 8-6 11-5zm-91 78 2 2h-2z" fill="#166B97"/>
<path transform="translate(817,380)" d="m0 0h9l-1 4-5 5-1 3h5v1h-6l-1 2v19l-3 4 4-2 9 23 5 13v11l-5 14-8 10-9 8-12 7-10 3-10 2-13 4-2-1 7-10 8-16 9-27 7-30 3-10-6 15-8 26 2-1-1 8-7 19-8 16-7 9-3 2 2-5h2l1-4 7-12-7 11-8 9h-3l-8 9-5 4v3l-3 3h-2l-2 4-6 5-7 1-5-5-7 4-6 7-6 11-5 12-3 13 1 12 4 8 4 3 9 1 8-7 4-6-11 1-7 2-8-11v-3l11-4 23-5h12l1 1-1 12-5 14-7 11-9 8-6 3-8 1-10-2-6-3-10-9-5-7-2-6-1-11 2-14 6-16 9-15 12-13 9-7 4-2 7-1 9 3 4 3v2l7-3 6-5 6-10 2-6v-8l-4-8 2 5v7l-5 13-2 1-2-14-4-12v-13l5-20 1-6 1-27 4-8 6-7 6-4 3-1h8l11 2h2l12-9 10-5 7-2 4 1-6 7 7-7v-2l3-1z" fill="#739F61"/>
<path transform="translate(692,238)" d="m0 0h29l15 3 10 4 11 7 1 2-10-3 13 8 10 9 4 7h2v13l-4 5-4 1-1-6-1-3-2-1h-10l-8 4-5 5-5 10-1 7 1 2h-3v2l5 2 1 3-33-2-35 1-30 3-31 6-25 7-11 4-19 1 5-5 7-11 2-6 17-9 6-5h2v-2l5-5 9-14 10-16 3-5 14-8 18-7 19-5z" fill="#74A062"/>
<path transform="translate(353,608)" d="m0 0 3 4 3 6 1 14v12l-2 14-6 18-7 11-10 11-13 9-14 7-17 5-15 2h-12l-14-2-22-8-14-6-16-5-1-6-2-16v-19l2-11 7-20 11-2h18l18 2 16 3v1l-35 2-16 2h32l19 2v2l-18 11-14 10 4-2 15-10 17-8 6-2 20-5 14-5 4 1-2 1-3 8 2 18-13 15-12 12 2-1 14-14 7-9h3l-3 9-6 23h2l1-7 4-14 4-5 5-9 2-1v9l4-5h2l-1 10-3 15 11-15 8-16 4-12 4-25 1-8z" fill="#74A062"/>
<path transform="translate(265,259)" d="m0 0h2l1 2h10l13 6 6-1v2l12-2 10-5v2h2l1-3h1l1 15 7 11 2 4 16 8v4l-4 4-4 9-1 4v30l-4 8-9 7-21 8-13 7-11 9-8 10-7 12-2 6-2-1 2-10 6-11 7-9 8-7 14-9 19-10 7-8 3-7 2-13-5 17-7 9-10 6-15 8-12 9-8 8-8 13-5 13h-1l1-11 6-22 9-25 11-25 9-23 3-2-1-1v-4l-11 28-14 34-9 24-6 26h-2l-1-4v-11l-4-20-11-27 3 9 7 20 2 4 1 6v10l-2-4-3-14-7-19-4-9-3-11v-15l2-11-1-2 5-12 9-14 7-10 5-10z" fill="#74A062"/>
<path transform="translate(474,517)" d="m0 0h20l13 4 13 9 8 9 6 12 3 14-1 17-5 15-7 11-9 9-11 7-13 4h-16l-11-3-9-4-11-7-9-9-7-12-3-10v-18l4-14 7-11 9-10 13-8 11-4z" fill="#74A062"/>
<path transform="translate(686,318)" d="m0 0h38l16 3 18 5h8l11 6v2h-2l-2 7-8 12-11 14-5 10-4 10-5 5-4 3-10 3-13-1-16-4-22-11-22-12-23-11-19-7-3-1v-2l-9-1-14-2-13-1h-33l2-2 12-3 3-1h32l20 3 19 5 13 5 17 9 17 12 16 9 14 4h19l9-3 2-2-14 4h-12l-10-2-12-5-12-7-16-11-16-9-17-6-18-4-26-3 1-2 26-7 33-6z" fill="#5F8D50"/>
<path transform="translate(279,444)" d="m0 0 2 4v50l2 8 1 2v-6l3-2 9 3 8 4 6 5 5 9-13 4-3 6v7l2 1-1 5-6 23-2 2-20 1-20 4-12 5-9 6-11 11-7 10-4 8-3 3-5 13-2 6h-2v-6l5-13 4-7-1-6-10-26-4-12-18-13-4-2 1-5 11-8 4-1-1-2-1-10v-32h2l3 7v3l4 1 4 4v2h2v2l4 2 15 7 13 3 23 3-16-8-11-6-4-3v-2h-2l-6-9v-3l-2-1-1-8-2-2-3-10-2-9 2-10 1-11h1v26l3 10 7 9 12 9 27 7 1-1-2-2 5 1 3 1-9-12-10-15-13-24 1-3 14 25 8 12 6 8h2l6 10 10 13 9 10 5 5h1l-6-7-4-7-4-13-2-8v-25l1-13z" fill="#154144"/>
<path transform="translate(481,713)" d="m0 0h2v4l-9 6-8 8-10 18-4 11-1 6v19l-4 10-11 11-15 8 3 1-1 2h-25l-12-4-14-11-9-5-1-3-7-3-8-15-8-11-9-10-10-7v-1h11l34 2 23-2 15-3 16-5 29-12 14-6 3 1-7 7-10 13-10 14-7 9h-2v2l-11 9-13 9-15 6 14-5 14-9 11-9 9-10 11-15 10-13 10-10 9-6z" fill="#74A062"/>
<path transform="translate(817,390)" d="m0 0 1 3h7l2 4-1 11-4 10 6 18 6-1 8 6 5 7 4 12v10l-3 10-6 8-5 3h-2v39l-2 18-1 4 5 2 4 6 5 18 9 14 2 4-1 4-8 4-11 15-8 12-9 10-14 9v-3l4-4 6-4h2v-2l7-6 9-15h2l1-4 8-10 6-5h2l-2-6-3-1-5-9v-2h-2l-10-15-7-10-5-6-14-9-11-4-6-1h-21l-15 5-11 6-4 3v-2l-6 3-4 5h-2v2l-10 8-5 1-1 3-5 3h-2v2l-11 5h-2v-7l5-13 5-10 7-9 6-5 4-1 4 5 7-1 7-6 1-2h2l1-3 2-1v-3l6-5 7-8 4-1 7-9 7-11 1 2-7 12-2 4h-2v3l8-10 8-17 7-21v-2l-2 2 2-9 6-20 7-17 1 3-5 16-6 27-8 23-8 16-7 10 21-6 8-1 14-7 9-7 8-9 5-10 2-7v-11l-13-34v-2l-6 4 2-4 2-2v-19z" fill="#0F525A"/>
<path transform="translate(577,640)" d="m0 0h4v2l-5 2-6 18-6 10-5 6-14 9-14 6-20 4-15 2-1 2-6 3-2 3-1 12-5 6-7 8-9 13-7 14-2 7v12l2 17 2 7-1 2 3-1 1 6 6 2 8 6 4 4 4 2 2 12v17l10-4h17l17 1 16-3 15-6 6-2-5 7-19 7-11 2h-14l-9-1h-12l-12 5-3 2h-3l1-6 2-7v-11l-3-10-13-1-36-6-7-2v-3h-5l4-3 13-7 10-10 4-10v-19l3-12 8-16 6-9 9-9 5-3h2v-4l-10 5-12 11-9 11-14 19-11 12-13 10-12 7-14 5-4-1 19-7 11-7 10-8 3-3h2v-2h2l2-4 8-10 12-17 11-12-9 3-28 12-16 6-16 4-16 2-17 1-35-2h-6l11 8 10 11 9 14 4 8v2l7 2 3 3-1 1 11 6 11 9 12 4h17l-1 2-11 2-12-1-8-4-5-5-7 6h-11l-14-7-12-12-8-13-2-12-16-9-16-11-11-8v-4h-2l-5-6-3-2 1-3 10 9 3 1v2h2l2 4h4v2l5 2 5 4 6 4v2l8 2-5-6v-2h-2l-3-5-3-4h8l1 1 9-1 1 1 9 1h48l24-4 24-8 27-12 19-8-9 2-12 3-8 1h-9l-15-2-15-4-18-7-9-2v-1h7l22 8 16 4 8 1h17l25-6 8-1 1-1-23 3h-31l-16-3-16-5 3-1 12 2h20l5 2 1-3 14-1-1 2 9-1 4-4 21-5 4-1h6v-2l11-4 8-2 17-4 15-5 11-8 3-4h2l2-5 2-3-1-2 2-2 2-4h2l1-5h2v-3z" fill="#164347"/>
<path transform="translate(231,394)" d="m0 0h2v20l3 18 4 16 6 15 1-3-9-24-2-7-3-16v-13l7 6 11 7 8 3 12 5 6 5 5 10 2 7 1 8-1 21-2 21-2 3v-35l-1 13v25l5 19 6 11 6 6-1 2-7-6-18-22-7-11h-2l-13-19-10-17-5-8 14 26 12 17 6 8-1 2-4-2-1 2-18-4-13-4-13-11-5-7-3-10v-13l1-13 7-4v-18l4-13 6-9z" fill="#729E62"/>
<path transform="translate(692,238)" d="m0 0h29l15 3 10 4 11 7 1 2-10-3-3 1-11-4-12-2h-22l-16 3-17 5-12 8-4 2v2l-8 7-8 9-1 2h-2l-2 4-6 9 8-4 14-9 7-4 16-11 7-5h2l2-4 6-4 2 1-9 8-16 12-14 11-12 8 16-8 11-7 6-4h2v-2l10-7 3-1v-2h2l-2 4h-2v2l-10 8-8 6h-2v2l-10 7h3l1-2 5-2 20-12 15-10 8-5h2v-2l6-4 11-8h2l-2 4-19 13-40 26-9 5-3 2h-3v2l-23 9-25 7-14 3 4 1 16-1 52-6 31-2h39l6-20 5-8 5-6 10-5h10l9 3 2-1v13l-4 5-4 1-1-6-1-3-2-1h-10l-8 4-5 5-5 10-1 7 1 2h-3v2l5 2 1 3-33-2-35 1-30 3-31 6-25 7-11 4-19 1 5-5 7-11 2-6 17-9 6-5h2v-2l5-5 9-14 10-16 3-5 14-8 18-7 19-5z" fill="#5D8B4F"/>
<path transform="translate(640,519)" d="m0 0 9 1 8 5 5 7 2 6 1 16-2 15-5 19-8 16-7 9-8 6-9 2-10-3-8-7-4-8-2-7-1-14 2-15 5-16 6-12 7-9 7-6 8-4z" fill="#F7F9F8"/>
<path transform="translate(474,517)" d="m0 0h20l13 4 13 9 8 9 6 12 3 14-1 17-5 15-7 11-9 9-11 7-13 4h-16l-11-3-9-4-11-7-9-9-7-12-3-10v-18l4-14 7-11 9-10 13-8 11-4zm1 15-10 3-9 6-5 5-6 9-3 10v13l4 12 6 8 9 8 9 4 4 1h17l12-4 9-6 6-9 3-10v-18l-4-12-7-10-8-6-10-4z" fill="#F7F9F8"/>
<path transform="translate(334,398)" d="m0 0h14l11 4 9 7 5 9 2 14-4 4h-7l-5-4-7-13-5-4-5-2-8 1-6 3-7 8-4 9-2 10 1 13 4 11 8 10 10 6 9 2 11-1 12-4 2-1v-8l-1-5-9 2-9 3h-3l-1-3 4-5 14-8 12-4 5 1 3 9 1 6v13l-3 8-4 5-10 5-14 3h-21l-11-3-8-4-10-9-6-9-4-10-2-11v-11l3-14 7-14 9-10 10-6z" fill="#F7F9F8"/>
<path transform="translate(366,698)" d="m0 0h11l16 4 23 7 13 2h31l17-2h6l-1 2-8 1-25 6h-17l-16-3-16-5-14-5 5 2 21 8 14 3 10 1h9l16-3 10-3 4 1-10 5-21 9-19 8-21 7-24 4h-48l-9-1-1-2 10-4 6-5 3-7 3-16 7-8 7-4z" fill="#5E8C50"/>
<path transform="translate(353,608)" d="m0 0 3 4 3 6 1 14v12l-2 14-6 18-7 11-10 11-13 9-14 7-17 5-15 2h-12l-14-2-22-8-14-6-16-5-1-11 2-1h8l21 5 18 5 11 2h30l14-2 2-5 3-1 1-7 4-14 4-5 5-9 2-1v9l4-5h2l-1 10-3 15 11-15 8-16 4-12 4-25 1-8z" fill="#5F8D50"/>
<path transform="translate(686,318)" d="m0 0h38l16 3 18 5h8l11 6v2h-2l-2 7-5 5-4 2-5 3-11 9-8 10-4-1-14-9-15-10-6-3h-2l12 7 15 11v2l4 2-3 1-8-3-8-6-2-1v-2l-5-2-5-4v-2l-6-2-6-3 11 10 10 8 2 1v2l5 2-4 1-11-7-17-17 2 4 9 11 2 4 4 1v2l4 2-2 1-9-7-16-16-5-3-4-4-10-7-10-6v-2h-2v-2l2-1z" fill="#739F62"/>
<path transform="translate(817,380)" d="m0 0h9l-1 4-5 5-1 3h5v1h-6l-1 2v19l-3 4 4-2 9 23 5 13v11l-5 14-8 10-9 8-12 7-10 3-10 2-13 4-2-1 7-10 8-16 9-27 7-30 6-17h2v-4l3-3 1-4 2-2 4-6 6-7 3-2z" fill="#739F61"/>
<path transform="translate(717,516)" d="m0 0 9 2 5 4 3 5v5l-7 6-7 1-5-5-7 4-6 7-6 11-5 12-3 13 1 12 4 8 4 3 9 1 8-7 4-6-11 1-7 2-8-11v-3l11-4 23-5h12l1 1-1 12-5 14-7 11-9 8-6 3-8 1-10-2-6-3-10-9-5-7-2-6-1-11 2-14 6-16 9-15 12-13 9-7 4-2z" fill="#F7F9F8"/>
<path transform="translate(429,417)" d="m0 0h8l8 3 5 4 5 10 2 8v18l-4 17-6 9-7 6-5 2h-11l-9-4-8-7-5-8-2-5-1-13 2-10 5-12 7-9 8-6z" fill="#F7F9F8"/>
<path transform="translate(320,298)" d="m0 0h8l18 3v3l-5 11-1 4v30l-4 8-9 7-21 8-13 7-11 9-8 10-7 12-2 6-2-1 2-10 6-11 7-9 8-7 14-9 19-10 7-8 3-7 2-13-5 17-7 9-10 6-15 8-12 9-8 8-8 13-5 13h-1l1-11 6-22 9-25 11-25 9-23 3-2v7l-8 21-2 6h2l2-5 4-7 7-4 11-3h9l-1-2v-7l6-6 1-2-8-2h-10l3-2z" fill="#5C8A4F"/>
<path transform="translate(222,377)" d="m0 0 1 2 4 2 8 6 8 4 2 2-1 5-1 2 2 1-2 4-4-1-3-5 1-2-3 1-1-4-5 4-7 10-4 10-1 5v18l-5 4h-4v11l-2 11 3 13 3 6 2 6 1 4 6 12h2v2l4 2 19 10 8 4 1 2-17-2-17-3-16-7-6-4v-2h-2v-2l-6-3v-2h-2l-3-10-3 1-13-29-1-4 9-3 16-1 5-21 8-23 8-18 7-14z" fill="#0F5159"/>
<path transform="translate(397,512)" d="m0 0h9l6 4 4 6-1 7-5 3-6-2-1-1-7 1-8 9-8 14-6 15-3 13v17l3 6 4 3h8l8-4 10-13 8 4 5 5-6 10-8 9-10 6-7 2h-15l-10-5-6-9-4-10-1-5v-11l3-16 6-16 8-16 9-12 9-9z" fill="#F7F9F8"/>
<path transform="translate(755,283)" d="m0 0h10l3 2 2 6-3 7-6 9-3 3 2 4 7 8 2 2 10 2 3 5 15 20 9 15 7 13v4l-11 4h-2l-9-19-6-9v2l2 4 3 3 2 5 6 10 1 4h-3l-1-3h-2l-4-6-5-6v-2h-2l-4-4v-2l-5-2-3-6-8 9-2-1 9-15 3-6 3-9 1-1-1-2-10-4h-7l-26-7-8-1h-38l-45 5-33 6-26 7 25 3 18 4 17 6 18 10 17 12 15 8 9 3 7 1h12l16-4-4 4-9 3h-19l-14-4-16-9-20-14-21-10-20-6-16-3-9-1h-32l4-2 15-1 21-7 24-6 30-5 22-2 35-1 21 1 12 2-4-4-2-1v-2l2-1-1-2 2-8 5-10 10-7z" fill="#184445"/>
<path transform="translate(320,520)" d="m0 0h22l6 2-1 9-3 8-14-3h-11l-9 30 11 1 10 5 8 8v1h-19l-13 1v19l1 6h13l16-4 8-3-1 5-5 10-8 4-21 3h-11l-4-1-3-10-1-5v-28l4-20 5-16 1-3-3-1v-7l4-7 11-3z" fill="#F7F9F7"/>
<path transform="translate(481,713)" d="m0 0h2v4l-9 6-8 8-10 18-4 11-1 6v19l-4 10-11 11-15 8 3 1-1 2h-25l-12-4-14-11v-5l30-10 12-7 14-11 10-11 11-15 10-13 10-10 9-6z" fill="#74A062"/>
<path transform="translate(622,407)" d="m0 0h7l6 6-2 25-2 20v24l4 11v3l-3 1h-10l-4-6-1-6-1-21-18 4-2 1-11 27-5 1-9-3 2-6 16-34 9-17 10-15 8-10z" fill="#F7F9F7"/>
<path transform="translate(379,704)" d="m0 0h7l22 8 16 4 8 1h17l25-6 8-1v2h2l-1 4v-3l-10 5-12 11-9 11-14 19-11 12-13 10-12 7-14 5-4-1 19-7 11-7 10-8 3-3h2v-2h2l2-4 8-10 12-17 11-12-9 3-28 12-16 6-16 4-16 2-17 1-35-2h-6l11 8 10 11 9 14 4 8v2l7 2 3 3-1 1 11 6 11 9 12 4h17l-1 2-11 2-12-1-8-4-5-5-7 6h-11l-14-7-12-12-8-13-2-12-16-9-16-11-11-8v-4h-2l-5-6-3-2 1-3 10 9 3 1v2h2l2 4h4v2l5 2 5 4 6 4v2l8 2-5-6v-2h-2l-3-5-3-4h8l1 1 9-1 1 1 9 1h48l24-4 24-8 27-12 19-8-9 2-12 3-8 1h-9l-15-2-15-4-18-7-9-2z" fill="#184446"/>
<path transform="translate(797,415)" d="m0 0 1 3-5 16-6 27-8 23-8 16-7 10 21-6 8-1 14-7 9-7 8-9 3-3-2 6-7 8-3 3-5 3-5 4h-2v2l-8 2 2 4-1 4-7-2h-7l2 5 6 1 6 4 2 3-1 4-11 1h-10l-1 2h-9l-6 1v-3l4-2 4 2-4-4h-2v2l-8 5-2 2h-3v2l-8 4-6 5-5 5-3 4h-2v2l-10 8-5 1-1 3-5 3h-2v2l-11 5h-2v-7l5-13 5-10 7-9 6-5 4-1 4 5 7-1 7-6 1-2h2l1-3 2-1v-3l6-5 7-8 4-1 7-9 7-11 1 2-7 12-2 4h-2v3l8-10 8-17 7-21v-2l-2 2 2-9 6-20z" fill="#164245"/>
<path transform="translate(668,409)" d="m0 0h15l8 3 6 7 1 3v11l-5 8-6 5-4 1 7 15 6 23v4l-4 1h-9l-3-9-2-14-5-12-2 32-2 7-1 1-9-1-5-4v-5h4l1-18v-45l-6 2-2-5 1-4 8-4z" fill="#F7F9F7"/>
<path transform="translate(298,299)" d="m0 0 1 3-1 3 3-1-1 6-2-3-4 9-20 48-9 27-4 17v3l6-14 8-11 9-9 15-10 16-8 6-5 4-6 6-20h1l-1 11-3 10-4 6-7 6-21 11-11 8-5 5h-2l-2 4-7 10-4 10-4 8-9-2-9-6-8-6-1-1v11l4 22 5 12 5 13-1 5-3-4-7-20-4-20-1-7v-18l5 1 1 5 5 3 1-4-3-1 3-3-1-5-11-6-9-7-5-10-5-36v-13l3-1 18-1 3-2-2 12v15l5 17 4 9 6 16 2 11-1-12-4-10-8-21 1-3 5 10 7 18 4 20v15h2l1-8 5-21 14-36 15-36z" fill="#184345"/>
<path transform="translate(609,650)" d="m0 0 8 1 3 1 1 2 24 12v2h3l5 5 8 9 3 5 3 7 5 10 3 14 1 18-1 14-5 12-8 13-6 8-4 5-6 5-4 4-13 7-3-1 8-10 4-9 6-10 2-4h2l3-10 4-8 3-13v-25l-3-12h-2l-8-16-4-6-10-11-6-3-4-4v-2l-4-2-3-2v-2h-2z" fill="#146992"/>
<path transform="translate(540,404)" d="m0 0h9l8 3 6 7 1 2v17l-2 4-8-1-2-2v-12l-3-3-2-1h-7l-4 1-3 9 2 8 9 10 13 11 6 8 2 5v8l-5 10-9 8-10 4h-10l-8-3-7-6-3-6 1-7 1-2h2v-2l6-2 1 1 1 9 4 4 2 1 9-1 5-4 3-6v-6l-4-6-15-13-7-9-3-10 1-9 4-8 7-7 5-3z" fill="#F7F9F7"/>
<path transform="translate(185,501)" d="m0 0 1 3 2 1 3 18 3 9v4l18 1 4 2v1l9 2 7 6 2 1v3h2v2h-3v-3l-2 2v2h2l3 3v2l3 1 3 6v2h2l-2 4h-2v3l-8 4-6 5-7 1-11-7v-2l-5-1v-2l-3-1v-2l-4-2-5-3-18-13-4-2 1-5 11-8 4-1-1-2z" fill="#0F5159"/>
<path transform="translate(320,580)" d="m0 0h13l-4 2 9 2 8 5 2 2 2-1 3 15-2 19-3 18-7 19-7 12-10 13-1-3 3-13 2-10-5 5-2 1v-9l-7 12-2 2-6 21h-2l2-12 4-13v-3h2l1-4-2-1 12-15 12-17 6-10 5-14-2-2-13 5-10 2h-13l-2-7v-13l1-6z" fill="#5F8D50"/>
<path transform="translate(629,652)" d="m0 0h11l20 5 9 2 10 6 4 4 5 3 4 5 1 3 7 6 1 3 6-2 18-4 3 1-13 8-9 2-1 3 4 8 3 8v23l-5 12-4 5-1 3-6 3-1 3-5 3h-2v2h-2l3-19 3-12 3-8 1-4v-10l-3-9-4-5-10-8-6-5v-2l-4-2-5-5-12-11-10-7-6-4-7-3z" fill="#0E5E74"/>
<path transform="translate(551,522)" d="m0 0h14l1 1 1 16 2 59 1 3h17l10 2 2 1-1 9-1 3-29 2-8 1h-11l-4-4 1-10 7-1-3-63-1-18z" fill="#F7F9F8"/>
<path transform="translate(265,259)" d="m0 0h2l1 2h10l13 6 6-1v2l3 1-14 2v27h-2l-2-25-1-2v13l-1 9-2 1-1-23-2 1 2 32-2-1-3-20-1-8h-2l-14 23 1 10 3 7-1 3-5-10-1-1-4 11-1 4v18l2 9 11 27 3 13-4 20-1 4h-2l-1-4v-11l-4-20-11-27 3 9 7 20 2 4 1 6v10l-2-4-3-14-7-19-4-9-3-11v-15l2-11-1-2 5-12 9-14 7-10 5-10z" fill="#5E8C50"/>
<path transform="translate(796,391)" d="m0 0 2 1-4 6h-2l-2 4-7 8-6 1-2-3v10h-1l-2-9-4 1-3 12-2-1 1-11-2 9-3 7-2 2-1 3v10l3 17v18l-2 8-3 10-2-2-4-8 2 5v7l-5 13-2 1-2-14-4-12v-13l5-20 1-6 1-27 4-8 6-7 6-4 3-1h8l11 2h2z" fill="#5D8B4F"/>
<path transform="translate(353,608)" d="m0 0 3 4 3 6 1 14v12l-2 14-6 18-7 11-10 11-5 2v-2l-16 8-17 5-15 2h-15l-19-3-18-6-7-3 4-1 22 7 10 2 10 1h11l16-2 13-4 8-4 9-6 8-7 8-10 6-10 4-14v-5l-7 16-11 18-11 12-9 6-2-1 5-6-6 3-7 1 3-12 4-14 4-5 5-9 2-1v9l4-5h2l-1 10-3 15 11-15 8-16 4-12 4-25 1-8z" fill="#74A062"/>
<path transform="translate(294,432)" d="m0 0 4 1-2 12v11l3 14 7 14 8 8 8 5 5 2-3 16 1 3 12 1v1l-22 1-3-3-2-6-4-2-5-4-13-4h-3v7l-3-3-2-10 1-3 3-33v-9l-2-16v-2z" fill="#11535A"/>
<path transform="translate(234,405)" d="m0 0 7 6 5 2-2 2 3 3 1 4 2 1v2l4-1 4 2 1 4-9 14 7-6 4-3h2l2-4 4-2-2 5-4 6 3-3h2l2-5 4 4v7l-5 13h-2v3h2l2-6 4-10h1l1 8v14l-3 9-5 12-2 5-4-5-7-10-4-4-5-7-1-8-8-21-2-7-2-9z" fill="#739F61"/>
<path transform="translate(352,712)" d="m0 0h13l15 5 9 5 4 2-1-2 4 2 7 6 5 7v2l2 1-2 2-20 4-8 1h-48l-9-1-1-2 10-4 6-5 3-7 1-5h10l5 1 5-1 1-2-6-1-4-3h7l12 3 9 5v2l5 2 6 3 5 2h2l-7-6-16-8-10-4-14-2z" fill="#74A062"/>
<path transform="translate(756,273)" d="m0 0h10l9 3 2-1v13l-4 5-4 1-1-6-1-3-2-1h-10l-8 4-5 5-5 10-1 7 1 2h-3v2l5 2 1 3-33-2-35 1-30 3-31 6-25 7-11 4-19 1 5-5 7-10 15-4 17 1 60-7 31-2h39l6-20 5-8 5-6z" fill="#5F8D50"/>
<path transform="translate(233,400)" d="m0 0 7 6 11 7 8 3 12 5 6 5 5 10 2 7 1 8-1 21-2 21-2 3v-35l-1 13v25l5 19 6 11 6 6-1 2-7-6-18-22-7-11h-2l-13-19-5-8 1-5 3 3 2 3-2-7 5 4 2 5h2l10 15 2-3 5-12 3-9v-14l-1-5-6 13h-2v-3h2l3-10 1-3v-7l-2-3-3 4h-2l-1 3h-2l5-10-8 7-4 3h-2l-2 4h-3l9-14-1-4-7-1v-2l-4-2-2-4-1-3v-2h-3v-2l-5-2-1 5h-1z" fill="#5C8A4F"/>
<path transform="translate(222,377)" d="m0 0 1 2 4 2 8 6 8 4 2 2-1 5-1 2 2 1-2 4-4-1-3-5 1-2-3 1-1-4-5 4-7 10-4 10-1 5v18l-5 4h-4v11l-2 11 3 13 3 6 1 5-2 4-11-20-8-7-7-4-8-1-1-4 2-1 16-1 5-21 8-23 8-18 7-14z" fill="#105259"/>
<path transform="translate(743,663)" d="m0 0 3 1 3 5h1l2 9 2 1-1 2 4 1v19l-4 13-3 1-2 6h-2l-1 3-8 7-4 1-1 3-16 8-1-4v-10l2-8 2-1 8-16 4-10 4-6 1-6h2v-3l2-1 1-6v-6z" fill="#0F525A"/>
<path transform="translate(492,701)" d="m0 0 2 1-1 3h-2l5 5 6 8 1 3v10l-4 11-8 10-10 10-9 6h-2v2l-8 6-4 7-2 4-1-8v-12l5-14 9-15 10-11 4-6h2l1-14 5-5z" fill="#4B849F"/>
<path transform="translate(292,568)" d="m0 0 1 3-1 7-1 25h-1l-1-19-9 1-35 1 7 2 9 1-4 2-9 2-11 1-4 2 9-1h10v1l-7 2 7 4 4 2-1 1-24 3-7 1v2l4-1h18l1 3-26 3-13 1 2-6 4-8 8-10 11-11 16-8 16-4 7-1z" fill="#74A062"/>
<path transform="translate(322,260)" d="m0 0h1l1 15 7 11 2 4 16 8v4l-22-3h-7l-5 2h7l10 2-3 5-5 2v9l1 3h-10l-14 4-4 2-1 4-5 8h-2l1-6 9-24 1-5h-2l1-9 4-10 10-17 4-6h4z" fill="#729E61"/>
<path transform="translate(643,533)" d="m0 0 5 1 1 4v19l-3 17-4 13-6 11-7 7h-5l-5-8-1-5v-18l3-12 8-16 9-10z" fill="#14545B"/>
<path transform="translate(426,207)" d="m0 0 2 1-5 4-1 1-3 5-4 6-6 5-4 6-9 10-7 11-8 16-3 9-1 5v19l4 18 1 7-4-4-5-2-2-4-5-21v-13l2-12 1-4-2-2 4-13 8-14 7-8 14-11 4-3h2l1-3 9-4z" fill="#146993"/>
<path transform="translate(555,339)" d="m0 0h33l20 3 19 5 13 5 17 9 17 12 16 9 14 4h25v2l10-4 4-1-6 7-8 4-7 2v1h-9l-16-4-22-11-22-12-23-11-19-7-3-1v-2l-9-1-14-2-13-1h-33l2-2 12-3z" fill="#719D63"/>
<path transform="translate(577,640)" d="m0 0h4v2l-5 2-6 18-6 10-5 6-14 9-14 6-20 4-17 2-4 2-5 5v9l-1-3-2-1 1-2-23 3h-31l-16-3-16-5 3-1 12 2h20l5 2 1-3 14-1-1 2 9-1 4-4 21-5 4-1h6v-2l11-4 8-2 17-4 15-5 11-8 3-4h2l2-5 2-3-1-2 2-2 2-4h2l1-5h2v-3z" fill="#154246"/>
<path transform="translate(598,248)" d="m0 0 8 1 9 6 2 2-1 5-10 15-10 16-8 8-10 6-8 5-4 6-4 10-4 3 3-9v-9l3-17 6-12 11-12 11-8 9-4 11-3-6-5-8-3z" fill="#4C85A0"/>
<path transform="translate(536,175)" d="m0 0h13v1l-26 4-17 5-18 8-18 12-15 12-2 5-5 1-12 12-9 12-10 17-8 21-5 17v17h2v12l1 15-2-2-3-12v13l4 17-1 3-7-17-3-11-1-8v-10l3-21 6-20 12-25 7-10 7-9 9-10 8-8h2l1-3 15-11 13-8 19-9 18-6 14-3z" fill="#4B849F"/>
<path transform="translate(359,217)" d="m0 0 2 1-2 6-6 8-8 19-2 16 3 15h2l4 8v3l-8-1-10-4-5-3-6-10-1-14-1 2-3-1-6 4-6 2h-9v-3l15-11 15-9 15-7h2l2-7 7-9z" fill="#10525A"/>
<path transform="translate(337,412)" d="m0 0 8 1 6 4 1 4-6 10-2 5h-2l-3 9-5 18-2 10-2 5-4-1-8-11-3-9-1-13 3-13 6-10 8-7z" fill="#174346"/>
<path transform="translate(481,713)" d="m0 0h2v4l-9 6-8 8-10 18-4 11-3 24-4 8-9 10-11 7-12 4-5 1h-13l-9-3-1-2 4-1 1 2h8l11-2 2-4 5-6 9-17 3-2-2 6-6 12-6 9 8-4 9-7 4-7 2-12h-2l-2-4v-3l-2-1 4-7 9-11 8-11 8-10 9-9 9-6z" fill="#5F8D50"/>
<path transform="translate(320,750)" d="m0 0 8 3 8 7 10 13 6 10 3 6v2l7 2 3 3-1 1 11 6 11 9 12 4h17l-1 2-11 2-12-1-8-4-5-5-7 6h-11l-14-7-12-12-8-13-1-3v-9l6 2 10 17 7 9 6 5 5 2 1-2-5-2-5-5-6-8-5-9-2-5-9-15v-2h-2l-1-4h-2v-2l-3-1z" fill="#115259"/>
<path transform="translate(208,445)" d="m0 0h1v9l2-3 6 8v2h2l5 5v2l4 2 9 8 5 3v2h2l1-2 6 7 5 5 9 12-1 2-4-2-1 2-18-4-13-4-13-11-5-7-3-10v-13z" fill="#74A062"/>
<path transform="translate(638,663)" d="m0 0 5 2 2 1v2h3l5 5 8 9 3 5 3 7 5 10 3 14 1 18-1 14-5 12-8 13-6 8-4 5-6 5-4 4-13 7-3-1 8-10 4-9 6-10 2-4h2l3-10 4-8 3-13v-29l2 2 1 9v11l-1 15 2-2-1 5-10 21-11 16-2 4 10-13 10-16 5-11 2-1 4-15 1-5v-10l-4-17-5-12-7-11-7-8-8-7z" fill="#0D5B6F"/>
<path transform="translate(413,224)" d="m0 0 1 2-3 4h-2l-2 5-4 7h-2l-2 4-6 10-6 16-2 8v28l6 29 2 11 4 10 3 6 4 6-1 2-6-7-4-7-6-8-7-11-5-5-5-11-3-9-3-7-1-6v-22l2-11 1-2h2v3l2-1-2 10-1 8v13l5 21 3 4 1 2h2l1-2 2 3-4-16-1-6v-19l3-12 8-17 7-10 7-9 6-7z" fill="#0D607A"/>
<path transform="translate(430,430)" d="m0 0h7l4 4 2 6v18l-4 12-7 8-2 1h-6l-6-4-3-5-1-4v-7l3-12 5-9 6-7z" fill="#14545A"/>
<path transform="translate(346,600)" d="m0 0 1 3-5 14-6 10-13 18-11 14-12 14-12 12-3 1v-2h2l2-4 8-7 10-11 4-5-2-18 4-9-10 3-21 6-10 2-4 1 1-4 17-9 18-7 27-4 7-3z" fill="#5A884F"/>
<path transform="translate(710,413)" d="m0 0h9l6 4 1 1-1 22-1 19-1 36-1 1h-11v-79z" fill="#F7F8F7"/>
<path transform="translate(827,442)" d="m0 0 2 3 3 7v11l-5 14-8 10-9 8-12 7-10 3-10 2-13 4-2-1 7-10 8-16 8-23 1 4-11 33v3l19-8 8-6 5-4 6-8h2l2-5-8 4-8 5h-2v-2l19-12 2-1v-3l-8 5-3-1 10-6 3-3v-2l-15 8-5 2h-5l3-2 17-8 5-4 2-4 1 1z" fill="#5E8C4F"/>
<path transform="translate(592,648)" d="m0 0 6 2 11 8 8 8 8 14 4 11 3 18v17l-2 14-6 19-6 14-11 18-9 12-12 13-11 9-2-1 3-4h2l2-4 9-9 9-11 10-14 9-19 4-14 3-22 1-28-8-20-10-15-5-5v-2h-2l-5-5z" fill="#4A849F"/>
<path transform="translate(352,419)" d="m0 0 3 3 6 11 3 2 7 1-3 5-5 1-1 6-9 11-8 7-9 17-5-2-3-3 3-5 3-15 5-15 3-7h2l2-6z" fill="#0F545F"/>
<path transform="translate(293,564)" d="m0 0 1 3-2 2-20 1-20 4-12 5-9 6-11 11-7 10-4 8-3 3-5 13-2 6h-2v-6l5-13 4-7-1-6-10-26-3-9v-3l4 2 7 6v2l5 1 4 4 7 4 7-1 9-7 13-6 17-4 7-1h21z" fill="#194445"/>
<path transform="translate(667,665)" d="m0 0 5 2 11 7 9 8 6 8 6 10 4 13 1 6 2-3 1 1v19l-5 12-4 5-1 3-6 3-1 3-5 3h-2v2h-2l3-10 6-17 5-14 1-10-2-10-7-13-1-3 2-1-9-10-2-1v-2l-4-2-11-8z" fill="#0D617B"/>
<path transform="translate(594,381)" d="m0 0 7 2 12 7v2l5 2 6 3 9 5 15 15 1 3 2 1 1-2 2 4 5-1 1 6v39h-1v-22l-3-1-10-14-9-10v-2h-2l-2-6-4-4h-7l-3 1-9-9-11-8v-4l-6-1-1-5z" fill="#1A687C"/>
<path transform="translate(696,316)" d="m0 0 32 1 12 2-1-3h2v2h2l3 5-9-2-13-2h-38l-45 5-33 6-26 7 25 3 18 4 17 6 18 10 17 12 15 8 9 3 7 1h12l16-4-4 4-9 3h-19l-14-4-16-9-20-14-21-10-20-6-16-3-9-1h-32l4-2 15-1 21-7 24-6 30-5 22-2z" fill="#295245"/>
<path transform="translate(279,444)" d="m0 0 2 4v50l2 8 1 2v-6l3-2 9 3 8 4 6 5 5 9-13 4-3 6-1 7h-2l-3-5-5-6-4-7-4-13-2-8v-25l1-13z" fill="#1A4545"/>
<path transform="translate(622,564)" d="m0 0 6 3 4 4 4-1 1 3 5 1v2h2v6l-8 16-7 7h-5l-5-8-1-5v-18l2-9z" fill="#194547"/>
<path transform="translate(224,426)" d="m0 0h1l2 11 7 19 13 24 8 11-1 2-8-8-4-2v-2l-5-2-11-10-2-1v-2l-4-2-1-3h-2l-4-6-2-2-2 1v-9l6-4 1-10 2 1v8l5 2 3 3-3-13z" fill="#74A062"/>
<path transform="translate(830,435)" d="m0 0 6 1 7 6 5 9 3 9v10l-3 10-6 8-5 2-2-3-1-22v-12l-6-17z" fill="#0C6076"/>
<path transform="translate(734,546)" d="m0 0h3l-1 4-9 10-9 11-2 4-20 5-4 3 7 9 2 2 11-3h7l-6 9-7 6-9-1-5-4-4-8-1-12 1-6 1 3 10-5h3v-2l7-4 1-2 8-4 5-5h2v-2h2l2-4z" fill="#136279"/>
<path transform="translate(379,704)" d="m0 0h7l22 8 16 4 8 1h17l25-6 8-1v2h2l-1 4v-3l-10 5-12 11-9 11-14 19-11 12-13 10-12 7-14 5-4-1 19-7 11-7 10-8 3-3h2v-2h2l2-4 8-10 12-17 11-12-9 3-28 12-16 6-16 4-16 2-17 1-35-2h-9l-1-3 5-1 1 1 9 1h48l24-4 24-8 27-12 19-8-9 2-12 3-8 1h-9l-15-2-15-4-18-7-9-2z" fill="#244E45"/>
<path transform="translate(462,721)" d="m0 0 3 1-7 7-10 13-10 14-7 9h-2v2l-11 9v-3l6-8 1-2h2l2-4 14-18 3-5h2l1-5-28 11-19 6-18 4-8 1h-10l-1-1-28-1-14-1-3-3h11l34 2 23-2 15-3 16-5 29-12z" fill="#5F8D50"/>
<path transform="translate(692,238)" d="m0 0h29l15 3 10 4 11 7 1 2-9-3-11-4-10-2-12-1h-19l-20 2-23 5-22 9-10 6h-2l1-4 9-6 13-6 21-7 20-4z" fill="#729F62"/>
<path transform="translate(236,580)" d="m0 0 2 1-2 5-10 9-2 3h-2v2h-2l1 3h3l5-6 13-2h10v1l-7 2 7 4 4 2-1 1-24 3-7 1v2l4-1h18l1 3-26 3-13 1 2-6 4-8 8-10 11-11z" fill="#74A062"/>
<path transform="translate(366,698)" d="m0 0h11l16 4 23 7 13 2h31l17-2h6l-1 2-8 1-25 6h-17l-16-3-16-5-14-5-5-1h-15l-9 4-10 6 1-4 5-5 9-6z" fill="#5F8D50"/>
<path transform="translate(536,167)" d="m0 0h23l28 4h13l8-1h10l-6 12-3-4 2-3-9 1h-18l-25-4h-23l-16 3-26 7-19 9h-2v-2h3l2-5 16-7 26-7z" fill="#21514D"/>
<path transform="translate(423,268)" d="m0 0 1 4-4 14-1 12v38l4 28 2 8h3l2-15 2-13 1-1 3-15 6-20 5-11 1 3-3 7-7 26-3 13-4 26-3 12h-3l-3-7-2-2v-7h-2l-4-32v-36l1-2 2-12 2-10z" fill="#0E5562"/>
<path transform="translate(781,332)" d="m0 0 5 4 12 17 8 13 7 14-3 3h-5l-1-3h-2l-2-7-3-1v-3l-3-3v-4l-5-2-3-3v-2h-2l-5-8-1-1v-11z" fill="#0E6075"/>
<path transform="translate(797,415)" d="m0 0 1 3-5 16-6 27-8 23-8 16-7 10 21-6h3v2l-19 7-11 6-13 7-6 3h-2l1-3 2-1v-3l6-5 7-8 4-1 7-9 7-11 1 2-7 12-2 4h-2v3l8-10 8-17 7-21v-2l-2 2 2-9 6-20z" fill="#365F46"/>
<path transform="translate(338,333)" d="m0 0h1l1 7v9l-4 8-9 7-21 8-13 7-11 9-8 10-7 12-2 6-2-1 2-10 6-11 7-9 8-7 14-9 19-10 7-8 4-9h1v5l-2 5 1 1 2-4h2l3-5v-8z" fill="#618F53"/>
<path transform="translate(576,643)" d="m0 0h2l-1 10-5 15-4 8-9 10-9 6-10 4-13 3-20 1-9-1 3-2 22-3 13-4 16-8 9-7 7-11 4-10 3-10z" fill="#4C85A0"/>
<path transform="translate(767,533)" d="m0 0h21l13 3 11 6 10 8 9 12 8 13-2 1-5-5-6-8-8-10-10-8-11-6-7-3-1 4-1-2 1-2h-18l-12 3-12 6-10 8-13 16-3 4v1h-5l2-4 11-13 7-8 8-7 13-6z" fill="#4C85A0"/>
<path transform="translate(480,822)" d="m0 0 5 1 1 8 1 5v17l10-4h17l17 1 16-3 15-6 6-2-5 7-19 7-11 2h-14l-9-1h-12l-12 5-3 2h-3l1-6 2-7v-11l-4-13z" fill="#1A5455"/>
<path transform="translate(368,466)" d="m0 0 4 1 1 5v8l-8 4-12 3-12-1-5-2 1-3h4l3-5 4-6h2v2z" fill="#16565B"/>
<path transform="translate(616,653)" d="m0 0 5 1 14 7 10 9 5 4 10 13 6 13 4 14 1 6v10l-4 17-2 5-2 1-7 14-10 15-7 9-2 3-1-2 7-11 9-14 9-19 4-15 1-5v-16l-4-14-6-10-8-11-9-9-10-7-13-7z" fill="#4B849F"/>
<path transform="translate(777,336)" d="m0 0h1l1 10 3 3 2 6h2l4 5 4 2 1 6 3 1v3l3 3 1 5h2l1 2h5l3-2v3l-11 4h-2l-9-19-6-9v2l2 4 3 3 2 5 6 10 1 4h-3l-1-3h-2l-4-6-5-6v-2h-2l-4-4v-2l-5-2-2-3 1-5 2-4h2v2h2l2 5 3-1-8-10z" fill="#0E525A"/>
<path transform="translate(298,299)" d="m0 0 1 3-1 3 3-1-1 6-2-3-4 9-20 48-9 27-4 17v3l6-14 8-11 9-9 15-10 16-8 6-5 4-6 6-20h1l-1 11-3 10-4 6-7 6-21 11-11 8-5 5h-2l-2 4-7 10-4 10-4 8-6-1 1-3h2l1-8 5-21 14-36 15-36z" fill="#204A44"/>
<path transform="translate(197,637)" d="m0 0h1l-1 14-1 8v19l2 16 1 4-1 2 16 4 27 11 14 4 8 1-2 4-19-4-18-8-17-7-11-3-3-5-2-17v-19l3-19z" fill="#28544C"/>
<path transform="translate(357,434)" d="m0 0 8 4v-2h6l-3 5-5 1-1 6-9 11-8 7-9 17-4-2 7-18 10-18 3-1 1-4 2-1z" fill="#4A849F"/>
<path transform="translate(185,501)" d="m0 0 1 3 2 1 3 18 3 9v4l18 1 4 2-2 1h-14l-17 3-7 4h-2l1 3 4 2v2l6 2 6 5-2 4-10-8-10-6 1-5 11-8 4-1-1-2z" fill="#10535B"/>
<path transform="translate(209,460)" d="m0 0 4 5 2 1v2h2v2l6 2 4 4-10-1 7 8 2 1v2h2l5 5 14 7 10 3 1 3 2 2-3 1-23-6v-2l-5-2-10-9-6-9-3-8z" fill="#5D8B4F"/>
<path transform="translate(758,285)" d="m0 0 9 1v8l2 1-7 11-5 6-5-5v-3h-3l-1-3-6-2 2-5 3-2 1-3h2v-2z" fill="#0C5F76"/>
<path transform="translate(667,665)" d="m0 0 5 2 11 7 9 8 6 8 6 10 4 13v17l-4 10-2 1 2-12v-17l-4-12-1-1 4 11v16l-4 13-7 19-2 5-2 1 1-7 6-17 5-14 1-10-2-10-7-13-1-3 2-1-9-10-2-1v-2l-4-2-11-8z" fill="#4A849F"/>
<path transform="translate(658,710)" d="m0 0 2 2 1 9v11l-1 15 2-2-1 5-10 21-11 16-2 4 10-13 10-16 1-3h2l-3 9-10 15-1 5h-2l-2 6h-2v2l-8 6-4 2-3-1 8-10 4-9 6-10 2-4h2l3-10 4-8 3-13z" fill="#0D5F75"/>
<path transform="translate(293,564)" d="m0 0 1 3-2 2-20 1-20 4-12 5-9 6-11 11-7 10-4 8-3 3-5 13-2 6h-2v-6l5-13 4-7 2-5 13-16 12-11 15-7 17-4 7-1h21z" fill="#345C46"/>
<path transform="translate(763,398)" d="m0 0h8l1 2-4 1-10 2-7 13-3 13-3 24-4 17v8l5 20v9l-3 3-2-14-4-12v-13l5-20 1-6 1-27 4-8 6-7 6-4z" fill="#74A063"/>
<path transform="translate(579,654)" d="m0 0h1l2 10v15l-3 19-5 16-2 1v-6l-6 5h-5l-2 3-8 1-4 2h-19v-1l13-2 11-3 7-3 2-4 5-1 6-7 3-6 2-15 1-20z" fill="#0D5968"/>
<path transform="translate(568,245)" d="m0 0h16v1l-18 2-20 6-17 9-13 10-12 11-8 8-11 15-11 17-10 16-12 22-3 3 3-10 10-18 15-24 10-14 12-14 10-10 11-9 14-9 17-8z" fill="#4C85A0"/>
<path transform="translate(200,695)" d="m0 0 13 4 28 13 18 5h25l15-3 14-5 13-7h3l-9 6-12 6-17 5-15 2h-12l-14-2-22-8-14-6-16-5z" fill="#719E62"/>
<path transform="translate(638,663)" d="m0 0 5 2 2 1v2h3l5 5 8 9 3 5 3 7 5 10 3 14 1 18-2 11-3 9-4 3 2-9 1-11 1-4-1-5v-10l-4-17-5-12-7-11-7-8-8-7z" fill="#156A95"/>
<path transform="translate(384,630)" d="m0 0 5 1 7 7 19 14 16 8 9 4-3 3-17-5-17-9-10-8-9-9z" fill="#0E6178"/>
<path transform="translate(413,224)" d="m0 0 1 2-3 4h-2l-2 5-4 7h-2l-2 4-6 10-6 16-2 8v28l6 29-1 4-4-13-4-18v-22h-2l-1-3-2 2 1-10 7-16 10-16 11-12 4-6z" fill="#0C5D71"/>
<path transform="translate(265,260)" d="m0 0h1l1 7h-2l-2 6-9 15h-2l-2 5-8 13-2 8-2 12v14l2 10 1 6 8 20 3 8 1 6v10l-2-4-3-14-7-19-4-9-3-11v-15l2-11-1-2 5-12 9-14 7-10 5-10z" fill="#36604C"/>
<path transform="translate(690,619)" d="m0 0 13 2v1l-5 1 13 10 15 8 16 6 18 4h20l10-3 12-6 9-7 2 1-8 7-16 8-11 3h-21l-17-4-21-8-15-8-12-11z" fill="#4B849F"/>
<path transform="translate(325,772)" d="m0 0 6 2 10 17 7 9 4 5v3h2v2l2 1-5 1-8-6-9-9-8-13-1-3z" fill="#11555E"/>
<path transform="translate(320,538)" d="m0 0 3 4 4 17 3 9 2 4-6-2-5-2-11-2 4-16 4-10z" fill="#1B4648"/>
<path transform="translate(817,390)" d="m0 0 1 3h7l2 4-1 11-4 10 3 9 7 18 1 5v16l-3 6-1-2 2-7v-11l-13-34v-2l-6 4 2-4 2-2v-19z" fill="#214B45"/>
<path transform="translate(734,546)" d="m0 0h3l-1 4-9 10-9 11-2 4-20 5-5 2-1-3h-2l1-4v3l10-5h3v-2l7-4 1-2 8-4 5-5h2v-2h2l2-4z" fill="#17698F"/>
<path transform="translate(409,215)" d="m0 0 3 1-11 11-7 8-10 11-9 14-4 8h-2l-1 2-1-2 4-13 8-14 7-8 14-11 4-3h2l1-3z" fill="#146992"/>
<path transform="translate(200,539)" d="m0 0 16 1 9 2 7 6-2 2-10-4-8-2h-20l-9 3 4 6 11 11 13 9-2 1-12-8-11-8-7-4v-2l-6-2 1-3 9-5z" fill="#0C6077"/>
<path transform="translate(594,381)" d="m0 0 7 2 12 7v2l5 2 6 3 6 4 1 5-5-1-8 2-5-5-14-10v-4l-6-1-1-5z" fill="#4B849F"/>
<path transform="translate(470,463)" d="m0 0h19l7 1v11h-27l-1-1 1-10z" fill="#F6F7F6"/>
<path transform="translate(213,401)" d="m0 0h2l-1 5-1 3-3 6-3 1-1 10-2 6-5 29 3 3-11-2-16-1v-2l2-1 16-1 5-21 8-23 4-10z" fill="#1F4C4B"/>
<path transform="translate(254,416)" d="m0 0 8 1 12 6 4 5 4 8 2 7 1 8-1 21-2 21-2 3v-48l-3-10-4-8-9-7-2-1v-2l-6-2z" fill="#6F9C64"/>
<path transform="translate(670,419)" d="m0 0h11l6 4 1 2v7l-5 6-6 3h-5l-2-17z" fill="#1D4849"/>
<path transform="translate(677,689)" d="m0 0h5l6 5v2l3 1v2h2l1-2 6 9 2 10-1 10-5 14-6 17-2 3v-8l4-16 3-8 1-4v-10l-3-9-4-5-10-8z" fill="#0E596A"/>
<path transform="translate(416,212)" d="m0 0 3 1-15 14-9 11-14 18-8 16-3 11-1 16v6l-2-1-1-5v-13l2-12 5-12 7-12 10-11 7-8 11-12z" fill="#4A849F"/>
<path transform="translate(611,680)" d="m0 0 2 3 3 8 4 14 1 15v15l-4 1-1-13-3-19-5-11-3-11 6 1z" fill="#0C6077"/>
<path transform="translate(567,371)" d="m0 0 9 1 13 4 12 5 11 6 15 10 2 3-5-2-8-4-3-2v-2l-5-2-12-6h-4v2l2 1-1 1 6 2 3 5 1 2-5-2-14-8-22-8 4-1 15 3 8 2-8-4-14-5z" fill="#0C6077"/>
<path transform="translate(623,345)" d="m0 0 9 1 14 6 17 10 14 10 15 8 9 3 7 1h12l16-4-4 4-9 3h-19l-14-4-16-9-20-14-21-10-10-4z" fill="#1E4844"/>
<path transform="translate(555,339)" d="m0 0h33l20 3 19 5 13 5 17 9 7 5-2 1-25-12-25-8-15-3-14-2h-30v-2z" fill="#5F8D50"/>
<path transform="translate(688,236)" d="m0 0h35l14 3 12 5 10 6 10 10 6 10 1 6-3-3-6-8-10-8-11-6 3-1 6 2-9-6-14-5-11-2-33-2z" fill="#416D52"/>
<path transform="translate(580,653)" d="m0 0 2 1 2 14v12l-3 20-3 10-8 15-9 12-4 5-13 9-12 5-9 2-15 1-2-2 14-1 16-4 13-7 10-9 7-10 7-12 5-16 3-19v-15l-1-4z" fill="#4C85A0"/>
<path transform="translate(784,457)" d="m0 0 1 4-7 21-8 17-8 10-3 2 2-5h2l1-4 7-12-7 11-8 9-1-3 12-17 8-16 6-16 2 1z" fill="#5B894F"/>
<path transform="translate(406,230)" d="m0 0 1 3-8 8-8 12-6 10-6 14-2 9v19l4 18 1 7-3-4-5-19-1-8v-11l3-14 6-14 8-12 11-13 3-3h2z" fill="#4B849F"/>
<path transform="translate(497,408)" d="m0 0h14l3 2-8 6h-2l-2 4-2 2-17 3-5 2-3-1 17-8h2v-3l5-2h-19l-11 2-4-1 15-4 15-1z" fill="#0C6077"/>
<path transform="translate(850,585)" d="m0 0 4 5 3 6-1 4-8 4-11 15-8 12-9 10-14 9v-3l4-4 6-4h2v-2l7-6 9-15h2l1-4 8-10 6-5h2l-2-6-3-1z" fill="#235450"/>
<path transform="translate(602,180)" d="m0 0h6l-2 5-1 7-2-2v-4h-3l-4 4-5-1-9 6-13 11-7 7-9 11-7 10-5 9-1-3 4-8 8-11 11-13 11-11 15-11z" fill="#4A849F"/>
<path transform="translate(620,424)" d="m0 0 2 1-4 27-10 2h-5l8-16 7-11z" fill="#1D595C"/>
<path transform="translate(511,340)" d="m0 0h9l-3 2-9 3-5 2-11 2-1 3-12 5-4 3-7 3-6 3-6 4 2-4 12-11 5-2 10-5 11-2 1-3 12-2z" fill="#0F5260"/>
<path transform="translate(449,779)" d="m0 0 2 4-3 10-7 8-8 7-12 6 3 1-1 2h-25l-10-3v-2l7 1h13l12-3 10-5 9-7 7-9z" fill="#709C63"/>
<path transform="translate(797,415)" d="m0 0 1 3-5 16-6 27-8 23-8 16-7 10-4 2 2-4 8-11 8-18 6-18v-2l-2 2 2-9 6-20z" fill="#355D46"/>
<path transform="translate(789,532)" d="m0 0 9 1 11 5 5 2 9 7 9 11 1 3h2l6 11 6 7 3 5-1 5-3-2-3-6v-2h-2l-10-15-7-10-5-6-14-9-16-6z" fill="#134449"/>
<path transform="translate(426,207)" d="m0 0 2 1-5 4-1 1-3 5-4 6-6 5-3 3-8 7-10 13-3 3-1-4 10-13 12-14 12-11-1-2z" fill="#0D6078"/>
<path transform="translate(259,573)" d="m0 0h13l-3 2-26 9-6 4-3 5-2 1v3l-5 3-4 5-3-2v-3h2l1-4 7-6h2l1-3 3-3 5-4 14-6z" fill="#5F8D50"/>
<path transform="translate(805,593)" d="m0 0h10l5 1-1 2-39 3-20 3h-6l-1 1-13 1h-10l2-3h12l24-4 24-3z" fill="#4B849F"/>
<path transform="translate(695,683)" d="m0 0 5 3 1 3 6-2 18-4 3 1-13 8-9 2-1 3 4 8 3 8-1 4-1 5-2-3-4-16-3-6-1-5-4-6z" fill="#0E525A"/>
<path transform="translate(208,445)" d="m0 0h1v9l2-3 6 8v2h2l5 5v2l4 2 9 8 5 3v2h2l1-2 6 7 5 5 1 4-1 2-5-5-4-5-9-7-12-9-9-6-8-9-1-2z" fill="#5F8C50"/>
<path transform="translate(221,617)" d="m0 0h19l5 2 3-1 2 1v2l-29 3-11 2h-5l2-7z" fill="#75A163"/>
<path transform="translate(366,698)" d="m0 0h11l16 4 4 2v3l-8-1-8-2h-15l-9 4-10 6 1-4 5-5 9-6z" fill="#719E63"/>
<path transform="translate(366,266)" d="m0 0h2v3l2-1-2 10-1 8v13l5 21 5 12 2 6-4-4-5-11-3-9-3-7-1-6v-22l2-11z" fill="#0E535C"/>
<path transform="translate(716,752)" d="m0 0 6 1 5 2-5 5-17 13-6 3-1-2h2l-1-3 3-1v-2h2l1-4h2l2-4 5-7z" fill="#15575E"/>
<path transform="translate(197,637)" d="m0 0h1l-1 14-1 8v19l1 16h-2l-1 2-3-16v-19l3-19z" fill="#285349"/>
<path transform="translate(477,244)" d="m0 0v3l-7 10-9 14-4 8-9 17-8 21-3 11h-1l1-10 5-17 12-25 12-18 8-11z" fill="#4C85A0"/>
<path transform="translate(594,651)" d="m0 0 5 3 1 3h2l2 3 1 7 1 4 3 1 1 6-2 4-4-1-5-10-2-6-6-11z" fill="#0C6078"/>
<path transform="translate(419,820)" d="m0 0 5 1v5l-5 4-7 3-7 1-5-3 1-5 4-3 5-1 4 1z" fill="#176170"/>
<path transform="translate(378,284)" d="m0 0 2 1v3l3-1v33l-3 1-2-5-2-11v-19z" fill="#0C5C70"/>
<path transform="translate(566,839)" d="m0 0 2 1-5 6-19 7-11 2h-14l-9-1-2-1v-2h29l2-2 14-4z" fill="#29544A"/>
<path transform="translate(830,450)" d="m0 0 2 2v11l-5 14-8 10-9 8-12 7-3-1 11-7 5-4 8-10 6-11 3-9z" fill="#719E65"/>
<path transform="translate(447,297)" d="m0 0 1 3-3 7-7 26-3 13-4 26-3 12h-3v-2h2l-2-9 3-1 2-15 2-13 1-1 3-15 6-20z" fill="#0D5663"/>
<path transform="translate(579,654)" d="m0 0h1l2 10v15l-2 15-2 2-4 5-1 4h-2l-1 2-3 1v2l-4 1 1-4 6-5 5-9 2-15 1-20z" fill="#0E5560"/>
<path transform="translate(744,448)" d="m0 0h1l-1 10-3 12v8l5 20v9l-3 3-2-14-4-12v-13l5-20z" fill="#729E61"/>
<path transform="translate(746,479)" d="m0 0 3 4 4 9v8l-4 10-5 7h-2l-1 3-6 4-2-1 6-7 1-3-1-19 2 4 2 3 1 8 5-13v-7l-3-7z" fill="#315B47"/>
<path transform="translate(659,759)" d="m0 0h2l-3 9-10 15-1 5h-2l-2 6h-2v2l-8 6-4 2-3-1 8-10 3-5 1 2v1l10-13 10-16z" fill="#0C5F76"/>
<path transform="translate(574,242)" d="m0 0h15l24 5-2-5 4 2v5l-4 1-3 1-10-3-14-2h-16l-14 3-1-2 13-4z" fill="#0E5663"/>
<path transform="translate(492,291)" d="m0 0v3l-10 13-14 22-9 15-7 14-6 13-1-3 9-21 7-13 7-10 4-7 7-9 4-7z" fill="#0D5969"/>
<path transform="translate(346,600)" d="m0 0 1 3-5 14-6 10-13 18-11 14-12 14-12 12-3 1v-2h2l2-4 8-7 10-11 11-14 12-17 9-14 5-14z" fill="#275045"/>
<path transform="translate(490,297)" d="m0 0v3l-20 30-10 17-10 18-1-2 4-9 9-17 15-24 8-11z" fill="#4C85A0"/>
<path transform="translate(366,441)" d="m0 0 2 1-3 5-3 4h-2l-1 6-5 2 1 5-5 5-7 9-2 4-4-1 2-6 6-11 4-2 8-9 5-7 1-4z" fill="#0D6075"/>
<path transform="translate(779,331)" d="m0 0 2 2-3 3-2 10 8 10-2 2-4-4v-2h-2v-2h-2l-2 5-10 10-2-1 9-15 3-6 3-9h2v-2z" fill="#154044"/>
<path transform="translate(628,688)" d="m0 0 2 2 1 8h3l1 14v24l-2 11-2 2 1-11-1-1v-28z" fill="#0D5969"/>
<path transform="translate(820,393)" d="m0 0h5l2 4-1 11-4 10-2-2-2-7v-15z" fill="#165961"/>
<path transform="translate(298,306)" d="m0 0 1 4-10 24-12 29-3 7h-2l2-9 10-23 10-25 3-6z" fill="#709C5E"/>
<path transform="translate(329,272)" d="m0 0h6l7 9v3l-6 3h-4l-7-11 1-3z" fill="#0D617A"/>
<path transform="translate(641,815)" d="m0 0h6l1 1v6l-4 5-5 3h-5l-1-1 1-8z" fill="#176271"/>
<path transform="translate(185,536)" d="m0 0 2 1v4l-4 2-7 4h-2l1 3 4 2v2l6 2 6 5-2 4-10-8-10-6 1-5 11-8z" fill="#255953"/>
<path transform="translate(764,545)" d="m0 0 2 1-10 7-16 10-11 6-1 3-2 1h-6l6-7 3-4h6l6-4 14-8z" fill="#115B6B"/>
<path transform="translate(183,542)" d="m0 0m-2 1h2l1 3v3l7 8 7 7 13 9-2 1-12-8-11-8-7-4v-2l-6-2 1-3z" fill="#0C6077"/>
<path transform="translate(223,411)" d="m0 0 1 2v19l3 14-3-1-4-4-2-1v-14l2-10z" fill="#608E51"/>
<path transform="translate(352,419)" d="m0 0 3 3 1 3h-2l-1 5-8 14-5 10-2-4 7-19z" fill="#0D6077"/>
<path transform="translate(239,350)" d="m0 0 3 3 10 25 4 20v15h-3l-1-13v-10l-2-7-7-20-4-10z" fill="#1D4744"/>
<path transform="translate(364,798)" d="m0 0 6 2 11 8 5 4 12 4h17l-1 2-11 2-12-1-8-4-4-5-2-1v-2l-8-4v-2l-5-1z" fill="#28534B"/>
<path transform="translate(451,737)" d="m0 0 1 3-14 19-11 12-13 10-12 7-14 5-4-1 19-7 11-7 10-8 3-3h2v-2h2l2-4 8-10z" fill="#275045"/>
<path transform="translate(265,268)" d="m0 0h2l-2 6-10 18-11 16-4 4 1-6 9-15 2-3h2l2-5z" fill="#76A165"/>
<path transform="translate(701,220)" d="m0 0h8l1 4-2 4-12 6h-2v-7l4-5z" fill="#136273"/>
<path transform="translate(755,688)" d="m0 0 2 2v11l-4 13-3 1-2 6h-2l-1 3-8 7-2-1 4-5h2l4-8h2l2-6 3-8z" fill="#2C728A"/>
<path transform="translate(234,328)" d="m0 0h1l3 19 10 27 4 10 1 6v10l-2-4-3-14-7-19-4-9-3-11z" fill="#5A884F"/>
<path transform="translate(701,716)" d="m0 0 1 4-3 13-7 17-3 10h-1v-8l4-16 3-8 2-5h2z" fill="#0E596A"/>
<path transform="translate(687,581)" d="m0 0h1v5l4 1 3 6 3 3 1 5 6 2v3l-10-2-6-8-2-9z" fill="#247197"/>
<path transform="translate(830,435)" d="m0 0 6 1 7 6 5 9 3 9v10l-3 10-6 8-5 2v-2l6-5 4-8 1-3v-12l-4-10-5-8-6-5z" fill="#276770"/>
<path transform="translate(298,299)" d="m0 0 1 3-1 3 3-1-1 6-2-3-4 9-20 48-5 14-2-1 10-27 12-28z" fill="#254E45"/>
<path transform="translate(571,719)" d="m0 0 1 2-7 11-8 10-13 9-12 5-9 2-15 1-2-2 14-1 16-4 13-7 10-9 7-10z" fill="#4C85A0"/>
<path transform="translate(609,650)" d="m0 0 8 1 3 1-1 2h-2l10 5-2 2 4 4 5 2v2l2 1 2 4 3 1 5 7-1 4-4-6-10-11-6-3-4-4v-2l-4-2-3-2v-2h-2z" fill="#105E71"/>
<path transform="translate(207,458)" d="m0 0h1v7h2l3 12 6 10 7 7 8 5-4 1-13-10-7-9-3-10z" fill="#6E9B66"/>
<path transform="translate(232,403)" d="m0 0h1l3 22 2 10 5 12 5 13-1 5-3-4-7-20-4-20-1-7z" fill="#345C46"/>
<path transform="translate(720,615)" d="m0 0 4 1 7 8 11 8 6 4 4 2v2l6 2 2 2-6-1-14-7-10-10-8-6v-2h-2z" fill="#0D5764"/>
<path transform="translate(580,335)" d="m0 0h2v2l25 3 18 4-4 2-24-5-9-1h-32l4-2 15-1z" fill="#345C46"/>
<path transform="translate(789,562)" d="m0 0h11l8 2-4 1h-16l-12 3-19 10-10 8-4 3-2-1 8-7 14-9 16-8z" fill="#4C85A0"/>
<path transform="translate(630,322)" d="m0 0h7l-3 3-30 6-18 5-4-1 10-4 28-7z" fill="#254E45"/>
<path transform="translate(701,710)" d="m0 0h2v16l-4 13-7 19-2 5-2 1 1-7 6-17 5-14 1-10z" fill="#4B849F"/>
<path transform="translate(338,333)" d="m0 0h1l1 12-6 8-8 7-3 1h-3l-3 1v-2l8-7 5-11h1v5l-2 5 1 1 2-4h2l3-5v-8z" fill="#739F61"/>
<path transform="translate(480,822)" d="m0 0 5 1 1 8 1 5v17l5-1v2l-7 1-2-3v-15l-4-13z" fill="#1E5455"/>
<path transform="translate(755,283)" d="m0 0h10l3 2 2 6-1 3h-2v-8h-9l-8 1v2h-2l-1 4-4 4-1 2 7 2v3h3l1 4-4-2-3-3h-4-1v-8l6-8z" fill="#0F525A"/>
<path transform="translate(232,451)" d="m0 0 3 4 12 21 8 12 6 8h2l4 8-3-1-7-7-12-18-13-24z" fill="#285145"/>
<path transform="translate(368,406)" d="m0 0 5 2 5 6-1 7 3-1 1 5-3 3h-2l-1 2-1-1-2-11-2-6z" fill="#15647C"/>
<path transform="translate(754,601)" d="m0 0h17l-4 2-15 3-23 2v-4l24-2z" fill="#0D5A6B"/>
<path transform="translate(850,585)" d="m0 0 4 5 3 6-1 4-8 4-7 9-5 2 2-4 7-9 6-5h2l-2-6-3-1z" fill="#245853"/>
<path transform="translate(756,415)" d="m0 0h1l-1 26 3 17v18l-2 3-1-8h2l-1-2-3-19v-24z" fill="#244E45"/>
<path transform="translate(320,744)" d="m0 0 12 2 45 1 2 2-17 1-35-2h-9l-1-3z" fill="#335B45"/>
<path transform="translate(391,404)" d="m0 0 9 3-5 5-4 2-2 4-6 5h-2l1-7 7-5h2l-2-5z" fill="#0F637F"/>
<path transform="translate(556,298)" d="m0 0v3l-6 10-4 11 2-3 2-5 1 4 1 10-5 2h-3v-9l4-11 6-10z" fill="#0C5C6F"/>
<path transform="translate(309,276)" d="m0 0 1 4-8 24-4 1 1-9 4-10z" fill="#5A8652"/>
<path transform="translate(385,272)" d="m0 0 1 4-1 4v28l6 29-1 4-4-13-4-18 1-31z" fill="#0F525A"/>
<path transform="translate(638,663)" d="m0 0 5 2 2 1v2h3l5 5 8 9 3 6-4 1-8-11-5-6-8-7z" fill="#0C5D71"/>
<path transform="translate(594,651)" d="m0 0 5 3 1 3h2l2 3-1 4-2 5-1-3-3-1-6-11z" fill="#106484"/>
<path transform="translate(786,457)" d="m0 0 1 4-8 23-8 16-7 10-4 2 2-4 8-11 8-18 6-18z" fill="#214B44"/>
<path transform="translate(229,394)" d="m0 0 2 1-9 11-5 12-1 5v18l-5 4h-3v-2h3v-2l2-1 1-19 2-10 6-9z" fill="#164244"/>
<path transform="translate(277,387)" d="m0 0 2 1-1 5-8 11-5 12-2-1 2-10 6-11z" fill="#608E51"/>
<path transform="translate(332,288)" d="m0 0 1 2 16 8-2 2-13-4-19-1 2-2 14-3z" fill="#5F8D50"/>
<path transform="translate(623,345)" d="m0 0 9 1 14 6 17 10-1 3-14-8-15-7-10-4z" fill="#204A44"/>
<path transform="translate(680,668)" d="m0 0 5 2 5 5 3 5 2 1 2 5 5 7v2h-2l-6-9-6-7-10-8z" fill="#0C5C70"/>
<path transform="translate(833,554)" d="m0 0 5 3 3 3 3 10v6l-5-5-4-8v-2h-2l-1-6z" fill="#136173"/>
<path transform="translate(172,459)" d="m0 0h2l-1 6 4 8 2 6 5 12-1 3-3-4-12-28 1-2z" fill="#26534E"/>
<path transform="translate(476,352)" d="m0 0 4 1 3 2-7 4-14 7-6 4 2-4 12-11 5-2z" fill="#0D5866"/>
<path transform="translate(315,252)" d="m0 0 5 1-2 5-5 3-2 2h-3v2l-6-1-3 3-2-2 15-11z" fill="#166274"/>
<path transform="translate(358,618)" d="m0 0h2l1 4v26l-2 14-2 4-2 7-5 9-2 1 2-5 6-16 2-9 1-9v-12z" fill="#1E4845"/>
<path transform="translate(736,439)" d="m0 0 4 1 2 4-2 15-2 2-2-7-2-11z" fill="#0F525A"/>
<path transform="translate(340,794)" d="m0 0 8 8 4 3v3h2v2l2 1-5 1-8-6-4-7z" fill="#0C5F76"/>
<path transform="translate(759,253)" d="m0 0 4 1 7 8 5 8 1 6-3-3-6-8-9-7z" fill="#265047"/>
<path transform="translate(577,692)" d="m0 0 2 4-3 12-3 7-1-4v-2l-6 5-5-1 4-3h2v-2h2l1-2 5-8z" fill="#0C5F77"/>
<path transform="translate(413,224)" d="m0 0 1 2-3 4h-2l-2 5-4 7h-2l-2 4-7 12-2-2 3-8 8-10 6-7z" fill="#0D5E74"/>
<path transform="translate(213,401)" d="m0 0h2l-1 5-1 3-3 6-3 1-1 10-4 4-1-3 9-24z" fill="#255350"/>
<path transform="translate(442,647)" d="m0 0 6 1 5 4 3 1v2l9 3-1 2-15-4-8-5 2-1z" fill="#144044"/>
<path transform="translate(191,535)" d="m0 0 3 1 18 1 4 2-2 1h-14l-14 1v-4z" fill="#104E56"/>
<path transform="translate(667,668)" d="m0 0 6 1 9 7v2l4 2 8 9-1 2-5-3-8-9-2-1v-2l-4-2-7-4z" fill="#13668B"/>
<path transform="translate(630,735)" d="m0 0 1 2 2 1-2 12-4 12h-3l1-8z" fill="#1B6D98"/>
<path transform="translate(312,711)" d="m0 0 3 1-6 3h-2v2l-18 4-17 2h-9l1-3h12l15-2 17-5z" fill="#174345"/>
<path transform="translate(276,350)" d="m0 0 1 3-12 31-2-2 3-12 9-19z" fill="#5F8D50"/>
<path transform="translate(659,759)" d="m0 0h2l-3 9-12 18-6 7-2-2 10-13 10-16z" fill="#146992"/>
<path transform="translate(175,461)" d="m0 0h7l8 3 10 9 6 9 5 10-1 3-11-20-8-7-7-4-8-1z" fill="#0D6077"/>
<path transform="translate(193,691)" d="m0 0 2 3h3l1 4-1 2 16 4 5 2v3l-9-3-14-4-3-5z" fill="#38634C"/>
<path transform="translate(331,328)" d="m0 0h1l-1 11-3 10-4 6-7 6-4 1v-2l8-6 4-6z" fill="#1C4644"/>
<path transform="translate(529,808)" d="m0 0 1 3-9 11-9 10-12 11-2-1 9-9h2l2-4 9-9z" fill="#4C85A0"/>
<path transform="translate(328,776)" d="m0 0 3 1 1 6v3l4 2 1 6-4 1-6-9-1-4h2z" fill="#146173"/>
<path transform="translate(697,695)" d="m0 0 3 3 4 10 1 4v17l-2 8h-3l2-11v-16l-4-11z" fill="#10607B"/>
<path transform="translate(539,786)" d="m0 0 1 2-2 6-5 9-10 14-3 2 2-5 7-11 4-7h2l1-5z" fill="#0E5765"/>
<path transform="translate(310,621)" d="m0 0h8l-3 2-29 11-2-1 4-3z" fill="#608E51"/>
<path transform="translate(739,494)" d="m0 0 2 4 2 3 1 8 3-4-1 5-3 3h-2l-2-14zm1 19 3 2 2-1-1 3h-2l-1 3-6 4-2-1 6-7z" fill="#2A5345"/>
<path transform="translate(290,362)" d="m0 0 2 1-6 5-9 9h-2v2h-2l2-10 8-3z" fill="#739F61"/>
<path transform="translate(339,580)" d="m0 0 1 2h4l4 4h2l-1 6-9-6-5-2-13-2v-1z" fill="#1B4644"/>
<path transform="translate(304,622)" d="m0 0 3 1-25 11-8 4 1 2-4 2-3-1 2-4 21-10z" fill="#285145"/>
<path transform="translate(734,546)" d="m0 0h3l-1 4-9 10-6 7v-3l4-5v-5h2l2-4z" fill="#0D5F76"/>
<path transform="translate(474,323)" d="m0 0 2 2 1 3-5 4-6 8-4 8h-2l-1 3-1-2 9-16z" fill="#0C5D73"/>
<path transform="translate(265,640)" d="m0 0h2l1 3-19 10-14 10-2-1 10-8z" fill="#325A45"/>
<path transform="translate(672,453)" d="m0 0 3 4 4 10-1 3-3-1 2 11h-2l-2-8z" fill="#0C6077"/>
<path transform="translate(237,314)" d="m0 0h3l-2 12v14l2 10h-2l-3-14v-14l1-5-1-2z" fill="#315A45"/>
<path transform="translate(447,297)" d="m0 0 1 3-3 7-7 26-1 6-2-3 3-16 7-19z" fill="#0D6079"/>
<path transform="translate(566,839)" d="m0 0 2 1-5 6-10 4h-5l-1-3 15-6z" fill="#1B5253"/>
<path transform="translate(366,266)" d="m0 0h2v3l2-1-2 10-1 8-3 3v-18z" fill="#0D5A6C"/>
<path transform="translate(764,545)" d="m0 0 2 1-10 7-16 10-3-1 4-4 14-8z" fill="#0D5766"/>
<path transform="translate(247,465)" d="m0 0 5 4 2 7-1 2h-2v2l-3-1-5-8 1-5 3 3 2 3z" fill="#5B884F"/>
<path transform="translate(677,689)" d="m0 0h5l6 5v2l3 1v2h2l1-2 2 4-4 3-5-5-10-9z" fill="#0E525B"/>
<path transform="translate(836,570)" d="m0 0 4 1 7 8 3 5-1 5-3-2-3-6v-2h-2l-5-7z" fill="#1C4C4C"/>
<path transform="translate(611,242)" d="m0 0 4 2v5l-4 1-3 1-12-4-4-3h8l13 3z" fill="#104D56"/>
<path transform="translate(550,755)" d="m0 0v3l-6 7h-2v2l-13 10-13 7-3-1 15-8 14-12z" fill="#4C85A0"/>
<path transform="translate(670,734)" d="m0 0 2 2-1 7-2 11-1 2-3-1-3 2 1-6 2-1 4-15z" fill="#0F6179"/>
<path transform="translate(773,341)" d="m0 0h1l-1 9-6 10-5 5-2-1 9-15z" fill="#6C9A65"/>
<path transform="translate(658,768)" d="m0 0h3l-1 4-4 6-2-1-2 7-4 3-1-4 9-13z" fill="#0E535E"/>
<path transform="translate(343,711)" d="m0 0 2 1-4 19-4 6-9 6-5 1v-2l10-5 3-1 2-5 2-9z" fill="#1C4744"/>
<path transform="translate(672,705)" d="m0 0 2 2 3 11v23l-2 3v-12l-1-14-2-8z" fill="#0D5664"/>
<path transform="translate(601,201)" d="m0 0 3 3 2 4-1 4 1 19 2 3-1 3-3-5-2-14v-9l-3-7z" fill="#0E5561"/>
<path transform="translate(699,740)" d="m0 0 1 4 1 3-3 8-4 3-2-1 3-10 2-5h2z" fill="#146994"/>
<path transform="translate(772,341)" d="m0 0 1 2-8 15-5 7-4 1 1-4 10-13z" fill="#285145"/>
<path transform="translate(393,300)" d="m0 0 1 4h2l-1 15-1 9-2-2v-22z" fill="#0E535E"/>
<path transform="translate(298,306)" d="m0 0 1 4-10 24-3 1 3-9 7-18z" fill="#6C995B"/>
<path transform="translate(270,432)" d="m0 0 4 4v7l-5 13h-4l2-6 4-10v-5z" fill="#74A062"/>
<path transform="translate(657,422)" d="m0 0h2v17h-1v-6h-3l-4-5 1-4z" fill="#14545B"/>
<path transform="translate(746,244)" d="m0 0 5 1 9 6 1 2h-2l-2 4-11-6 3-1 6 2-9-6z" fill="#2F5A4A"/>
<path transform="translate(768,324)" d="m0 0 11 2 3 5-3 1-4 1v-2l-5-2-3-1z" fill="#416B4C"/>
<path transform="translate(495,703)" d="m0 0 5 1 5 5 4 6v5h-3l-3-9h-2l-4-4v-2l-3-1z" fill="#0D5867"/>
<path transform="translate(830,435)" d="m0 0 6 1 7 6 5 9 2 5v3h-2l-8-16-7-6z" fill="#206069"/>
<path transform="translate(826,436)" d="m0 0 3 1 4 13v16l-3 6-1-2 2-7v-11l-5-13z" fill="#184445"/>
<path transform="translate(458,339)" d="m0 0h2l-1 5-7 14-6 13-1-3 9-21z" fill="#0E5A6B"/>
<path transform="translate(651,656)" d="m0 0 9 1 9 2 10 6 1 3-5-2-6-3h-4l-2-2-5-1-7-3z" fill="#0E525A"/>
<path transform="translate(839,612)" d="m0 0 1 3-11 16h-3l2-5 6-10z" fill="#23554E"/>
<path transform="translate(775,484)" d="m0 0 1 2-8 16-8 9v-3l1-2h2l1-4 8-14z" fill="#5F8D50"/>
<path transform="translate(559,300)" d="m0 0 1 2-4 11-1 11-2 1-1-11v-7l5-5z" fill="#0D5867"/>
<path transform="translate(464,336)" d="m0 0 1 2-13 24-3 3 3-10 9-16z" fill="#4B849F"/>
<path transform="translate(694,734)" d="m0 0 1 2-1 9-5 15h-1v-8l4-16z" fill="#0E545E"/>
<path transform="translate(468,718)" d="m0 0 4 1-10 9-7 8-3 3 1-5 11-12-1-2z" fill="#2A5345"/>
<path transform="translate(760,598)" d="m0 0m-6 1h6v2l-7 2-13 1h-10l2-3h12z" fill="#4C85A0"/>
<path transform="translate(260,571)" d="m0 0 4 1-1 2-8 1-16 7h-3l4-4 12-5z" fill="#709C5E"/>
<path transform="translate(313,260)" d="m0 0 1 2 2 1-4 3-6 2h-9v-2l4-2 4-1 3 2v-2z" fill="#145055"/>
<path transform="translate(395,237)" d="m0 0 2 1-1 4-8 10-3 3-1-4 10-13z" fill="#106483"/>
<path transform="translate(701,220)" d="m0 0h3v2l-8 7-1 2 7-3 4-1-1 3-9 4h-2v-7l4-5z" fill="#1F6371"/>
<path transform="translate(811,635)" d="m0 0 2 1-8 7-16 8-6 2-4-1 9-3 14-7z" fill="#4C85A0"/>
<path transform="translate(712,591)" d="m0 0h7l-5 8-8-1 1-3h2v-2l-2-1z" fill="#16698D"/>
<path transform="translate(511,340)" d="m0 0h9l-3 2-9 3-5 2-3-1 2-1h-6l1-2 12-2z" fill="#0E5665"/>
<path transform="translate(423,268)" d="m0 0 1 4-4 14-1 7-3 2 1-9 2-10z" fill="#0D5765"/>
<path transform="translate(724,249)" d="m0 0h2l-2 4-19 13-5 2 5-5h2v-2l6-4z" fill="#5F8D50"/>
<path transform="translate(461,370)" d="m0 0 3 1-10 6-5 4-5 6-5 10-2 1 2-6 5-9 10-9z" fill="#0D5867"/>
<path transform="translate(766,294)" d="m0 0 3 1-7 11-5 6-4-3v-2l7-3 2-5 2-1z" fill="#216169"/>
<path transform="translate(755,283)" d="m0 0h10l3 2 2 6-1 3h-2v-8h-9l-11 2 5-4z" fill="#185151"/>
<path transform="translate(377,793)" d="m0 0h7l-3 2-8 2-1 4-6-2-3-3 10-2z" fill="#57844E"/>
<path transform="translate(704,701)" d="m0 0h2l1 3 2 1 3 8-1 4-1 5-2-3z" fill="#0D5B6D"/>
<path transform="translate(339,239)" d="m0 0h5v5l-1 1-9 1v2l-5 1 5-5z" fill="#1A4646"/>
<path transform="translate(364,798)" d="m0 0 6 2 11 8 5 5-3 2-4-5-2-1v-2l-8-4v-2l-5-1z" fill="#224D47"/>
<path transform="translate(755,688)" d="m0 0 2 2v11l-2 6-2 2-1-6z" fill="#2B728B"/>
<path transform="translate(688,579)" d="m0 0h2l4 6 5 7-1 3-5-3-2-5-3-1z" fill="#155E6D"/>
<path transform="translate(784,358)" d="m0 0 5 5 10 19-1 2-9-14-5-9z" fill="#144044"/>
<path transform="translate(650,319)" d="m0 0 7 1v2l-16 2h-6l1-3z" fill="#2F5745"/>
<path transform="translate(419,820)" d="m0 0 5 1v5l-5 4-2-1-1-4 1-4z" fill="#196273"/>
<path transform="translate(256,503)" d="m0 0 5 1 3 2h3l5 6v2l-6-2-7-4-1-3z" fill="#396347"/>
<path transform="translate(646,419)" d="m0 0 5 2 1-2 1 5-2 5h-3l-2-1-1-6z" fill="#44809B"/>
<path transform="translate(272,371)" d="m0 0 1 3-4 12-4 9-1-4 6-19z" fill="#6F9B5D"/>
<path transform="translate(321,257)" d="m0 0 3 1 1 5v11l7 11-1 2-7-10-1-2-1-14-1 2h-2l1-4z" fill="#255147"/>
<path transform="translate(789,532)" d="m0 0 9 1 11 5 5 2 2 2-1 2-5-2-12-6-9-3z" fill="#12474E"/>
<path transform="translate(581,410)" d="m0 0h19l11 3 2 1-1 3-8-3-9-2-14-1z" fill="#106277"/>
<path transform="translate(451,737)" d="m0 0 1 3-14 19-4 2 4-6 12-17z" fill="#204A44"/>
<path transform="translate(185,536)" d="m0 0 2 1v4l-4 2-7 4h-2l2-4 5-5z" fill="#1A5153"/>
<path transform="translate(597,339)" d="m0 0 10 1 18 4-4 2-24-5z" fill="#325A45"/>
<path transform="translate(738,298)" d="m0 0h1l1 11 1 4-3 3-4-2v-2l2-1-1-2 2-8z" fill="#325A45"/>
<path transform="translate(700,751)" d="m0 0 2 3v2l-6 3-1 3-5 3h-2v2h-2l2-4 2-1 2-5 4-1z" fill="#0C5C70"/>
<path transform="translate(743,538)" d="m0 0h3v4l-9 6v-2l-3-1 5-5z" fill="#0E5561"/>
<path transform="translate(225,424)" d="m0 0 2 4 4 15 1 8-2-2-5-15z" fill="#54814D"/>
<path transform="translate(330,342)" d="m0 0h1v5l-2 5v3l-3 2h-2l-1 4h-3l-3 1v-2l8-7z" fill="#6C995B"/>
<path transform="translate(309,276)" d="m0 0 1 4-4 12h-4l1-6z" fill="#527E4D"/>
<path transform="translate(456,787)" d="m0 0 2 3 2 9h3 3l-2 11-2-4-3-1-2-9z" fill="#0D5B6D"/>
<path transform="translate(630,699)" d="m0 0h2l1 4 1 26h-3v-20z" fill="#166B98"/>
<path transform="translate(680,668)" d="m0 0 5 2 4 4-2 4-8-6v-3z" fill="#0D5A6A"/>
<path transform="translate(629,666)" d="m0 0 5 1v2l2 1 2 4 3 1 5 7-1 4-4-6-11-12z" fill="#0C6078"/>
<path transform="translate(789,562)" d="m0 0h11l8 2-4 1h-16l-9 1 3-3z" fill="#4C85A0"/>
<path transform="translate(484,851)" d="m0 0 1 4 5 1-5 4-5 1 1-6 1-3z" fill="#2B564B"/>
<path transform="translate(364,770)" d="m0 0 1 4-5 12h-4l2-6h2l1-4z" fill="#5C8A4F"/>
<path transform="translate(178,554)" d="m0 0 5 1 8 6-2 4-11-9z" fill="#1E5455"/>
<path transform="translate(742,517)" d="m0 0 3 1-5 5v3l-3 3h-2l-1 2-2-7 6-3z" fill="#5C8954"/>
<path transform="translate(327,500)" d="m0 0 4 1h-2l-2 9-3 9-1-4 2-13z" fill="#0F6176"/>
<path transform="translate(751,407)" d="m0 0 2 1-7 14-1 5h-1v-9l4-8z" fill="#5C8A4F"/>
<path transform="translate(492,291)" d="m0 0v3l-10 13-6 9-2-1 5-7 4-7z" fill="#0E5765"/>
<path transform="translate(646,770)" d="m0 0 1 2-2 8-6 8-3 1 2-5 6-10z" fill="#0D5968"/>
<path transform="translate(594,651)" d="m0 0 5 3-2 4 2 8-4-4-4-8z" fill="#0C5D72"/>
<path transform="translate(729,604)" d="m0 0h18l-1 2-17 2z" fill="#11545D"/>
<path transform="translate(747,585)" d="m0 0 2 1-1 2h-2v3l-11 5 1-7 2-2 1 4z" fill="#106076"/>
<path transform="translate(710,733)" d="m0 0 1 4-4 11-6 7-1-2 9-17z" fill="#4C85A0"/>
<path transform="translate(560,618)" d="m0 0h14v1l-23 3-4-3z" fill="#18494C"/>
<path transform="translate(817,380)" d="m0 0h9l-1 4-5 5-1 3h5v1h-6v-10l3-1z" fill="#517C54"/>
<path transform="translate(476,352)" d="m0 0 4 1 3 2-7 4-5 1 2-3-5 1 2-3 5-2z" fill="#0D5A6B"/>
<path transform="translate(265,260)" d="m0 0h1l1 7h-2l-2 6-4 6-1-3z" fill="#2E5948"/>
<path transform="translate(554,220)" d="m0 0v3l-8 11-5 9-1-3 4-8 6-8z" fill="#4C85A0"/>
<path transform="translate(325,772)" d="m0 0 6 2 3 5-1 2-2-4h-2l-1 5-3-1z" fill="#185A62"/>
<path transform="translate(251,478)" d="m0 0h2l7 14-1 2-8-10-2-4h2z" fill="#649155"/>
<path transform="translate(213,401)" d="m0 0h2l-1 5-1 3-3 6h-3l2-9 1-3z" fill="#1D4A49"/>
<path transform="translate(253,396)" d="m0 0 3 2v15h-3l-1-13z" fill="#355D46"/>
<path transform="translate(581,642)" d="m0 0 3 1 3 3 5 1 2 5-3 2-7-8-6-2z" fill="#0E545F"/>
<path transform="translate(638,411)" d="m0 0 6 4 2 3-1 3h-5l-3-8z" fill="#4C85A0"/>
<path transform="translate(813,381)" d="m0 0h12l-4 1-1 2-5 5-5 4 2-4 4-4h-4z" fill="#224C45"/>
<path transform="translate(478,710)" d="m0 0h4v2h2l-1 4v-3l-5 1h-7l-8 2-1-2z" fill="#305946"/>
<path transform="translate(646,686)" d="m0 0 4 5 4 7v2l4 2v8l-2-2-1-6h-2l-7-13z" fill="#0D5A6B"/>
<path transform="translate(172,459)" d="m0 0h2l-1 6 2 4-1 5-2-2-4-11z" fill="#2A574D"/>
<path transform="translate(270,434)" d="m0 0 2 1-1 8-6 13-1-4 5-12z" fill="#5F8D50"/>
<path transform="translate(357,432)" d="m0 0 4 1 4 3v2l-7-2-1-1-2 5h-2l-1 4h-2l2-5z" fill="#13647B"/>
<path transform="translate(245,297)" d="m0 0 1 2-5 10-2 5-3 1 1-5 6-12z" fill="#2D584A"/>
<path transform="translate(306,588)" d="m0 0 3 4 1 14 1 2-4-1-1-6z" fill="#74A062"/>
<path transform="translate(386,400)" d="m0 0 5 2 3 3h-2l-2 3 1 3-3 1-2-9zm0 12 2 1z" fill="#0C5F76"/>
<path transform="translate(763,398)" d="m0 0h8l1 2-4 1-10 2-4 3-2-1 8-6z" fill="#6F9C5E"/>
<path transform="translate(664,289)" d="m0 0 3 1-5 4-6 3-3 2-3-1h2v-3l4-1 1-2 5-2z" fill="#56824D"/>
<path transform="translate(390,253)" d="m0 0 1 4v4l-2 5-2-2h-3l5-10z" fill="#0E535D"/>
<path transform="translate(544,848)" d="m0 0 4 1 2 2-11 3-3-1 3-4z" fill="#295950"/>
<path transform="translate(219,707)" d="m0 0 5 1 9 4-1 3-6-2-7-3z" fill="#2A554A"/>
<path transform="translate(786,448)" d="m0 0 3 1-1 8h-2l-1 3-1-1-2 2 2-9z" fill="#3A6347"/>
<path transform="translate(277,354)" d="m0 0 3 1-5 14-3 1 2-9z" fill="#6E9B5D"/>
<path transform="translate(335,241)" d="m0 0 2 1-6 5-7 2-1 2-6 1 3-3z" fill="#1F626F"/>
<path transform="translate(659,759)" d="m0 0h2l-3 9-5 7h-2l2-5z" fill="#186B92"/>
<path transform="translate(696,709)" d="m0 0 2 1 1 2h2v7l-2 4h-2z" fill="#0F525A"/>
<path transform="translate(494,698)" d="m0 0 2 1-1 2-6 3-2 3-1 8h-1l-1-9 5-7z" fill="#0E535E"/>
<path transform="translate(220,541)" d="m0 0 6 2 6 5-2 2-8-3z" fill="#0C5B6E"/>
<path transform="translate(256,495)" d="m0 0 5 5 4 5-1 2-7-5-3-1 1-3z" fill="#6F9C5E"/>
<path transform="translate(630,322)" d="m0 0h7l-3 3-11 1h-5l2-2z" fill="#234C44"/>
<path transform="translate(377,416)" d="m0 0 2 1 3-1-1 7 3-1-2 4-4 5h-2v-3l4-4-1-3h-2z" fill="#0C6078"/>
<path transform="translate(264,405)" d="m0 0 1 4-4 8-6-1 1-3h2l1-4 1 3z" fill="#254E45"/>
<path transform="translate(779,331)" d="m0 0 2 2-3 3-2 9h-2l-1-7 2-4h2v-2z" fill="#174749"/>
<path transform="translate(651,763)" d="m0 0 2 1-1 5-5 8h-1l1-7 3-6z" fill="#0C6077"/>
<path transform="translate(320,744)" d="m0 0 12 2 12 1v1h-26l-1-3z" fill="#355D46"/>
<path transform="translate(302,668)" d="m0 0 2 1-16 16-3 1v-2h2l2-4 8-7z" fill="#507C4C"/>
<path transform="translate(845,602)" d="m0 0 1 4-5 7-5 2 2-4z" fill="#1B5256"/>
<path transform="translate(551,307)" d="m0 0 2 1v6l-3 2-3 7-2-1z" fill="#176B97"/>
<path transform="translate(428,205)" d="m0 0 3 1-6 7-8 9v-3l4-5v-3l4-1z" fill="#0F4F57"/>
<path transform="translate(370,593)" d="m0 0 3 3v2h2l3 6h-5l-3-6z" fill="#156176"/>
<path transform="translate(375,417)" d="m0 0h2v4l3-1 1 5-3 3h-2l-1-4z" fill="#4C85A0"/>
<path transform="translate(660,318)" d="m0 0h12l-2 2-3 1h-10l-3-2z" fill="#295245"/>
<path transform="translate(413,224)" d="m0 0 1 2-3 4h-2l-2 5-4 7-2-4 6-7z" fill="#0E5663"/>
<path transform="translate(745,717)" d="m0 0 3 4h-2l-1 3-8 7-2-1 4-5h2l2-4z" fill="#1A677E"/>
<path transform="translate(850,585)" d="m0 0 4 5 2 6-2 2-3-5v-2l-3-1z" fill="#235857"/>
<path transform="translate(695,502)" d="m0 0h1l2 13v7l-3-1z" fill="#144044"/>
<path transform="translate(255,489)" d="m0 0 7 7 3 4 2 4-3-1-7-7-2-3z" fill="#2B5445"/>
<path transform="translate(244,474)" d="m0 0h2l9 14-1 3-9-13z" fill="#204A44"/>
<path transform="translate(592,346)" d="m0 0 16 3v2l-9-1-10-2z" fill="#0F525A"/>
<path transform="translate(402,229)" d="m0 0 3 3-7 7-2-1 1-4z" fill="#0D5F77"/>
<path transform="translate(434,818)" d="m0 0 11 1 2 1v2l-11-1-5-1z" fill="#246367"/>
<path transform="translate(356,662)" d="m0 0h2l-2 10-6 10-2 1 2-5z" fill="#1B4645"/>
<path transform="translate(771,494)" d="m0 0 2 1-2 5-7 10-4 2 2-4 8-11z" fill="#254E45"/>
<path transform="translate(238,455)" d="m0 0 4 4 3 7-1 3h-2l-4-8h2z" fill="#618E53"/>
<path transform="translate(386,413)" d="m0 0 2 1v3l-5 6h-2l1-7z" fill="#4A839E"/>
<path transform="translate(320,298)" d="m0 0 11 3v1h-19l3-2z" fill="#335B45"/>
<path transform="translate(379,275)" d="m0 0h1l1 6h1v7h-2l-1-3-2 2 1-10z" fill="#0E525B"/>
<path transform="translate(695,695)" d="m0 0h2l5 11-1 4-6-11z" fill="#47829F"/>
<path transform="translate(261,499)" d="m0 0 7 6 8 10-2 2-8-11-5-5z" fill="#1E4945"/>
<path transform="translate(709,237)" d="m0 0h20l4 3-24-2z" fill="#244E46"/>
<path transform="translate(412,221)" d="m0 0 2 3-6 7-3 1-2-3 4-2 1-3h3z" fill="#156A95"/>
<path transform="translate(355,791)" d="m0 0 7 2 3 3-1 2-7-2z" fill="#365E46"/>
<path transform="translate(827,630)" d="m0 0 1 2-7 8-4 2 2-4 4-5z" fill="#285851"/>
<path transform="translate(175,461)" d="m0 0h7l8 3 3 2v2l-5-2-4-2-8-1z" fill="#11637A"/>
<path transform="translate(273,388)" d="m0 0h2l-2 5-6 10-1 2-2-1 6-12z" fill="#204A44"/>
<path transform="translate(239,350)" d="m0 0 3 3 5 13-2 2-6-15z" fill="#244E45"/>
<path transform="translate(393,300)" d="m0 0 1 4h2l-1 15h-1l-1-5z" fill="#0C5D71"/>
<path transform="translate(647,787)" d="m0 0 2 3-4 5-6 4-2-1 4-2v-2l2-2 2-4z" fill="#0E525B"/>
<path transform="translate(201,623)" d="m0 0 1 4-3 9h-2v-6l3-6z" fill="#285248"/>
<path transform="translate(740,603)" d="m0 0h17v2l-11 1v-1l-6-1z" fill="#0D5968"/>
<path transform="translate(366,441)" d="m0 0 2 1-3 5-3 4h-2v2h-2l2-4 3-7z" fill="#0C6077"/>
<path transform="translate(761,357)" d="m0 0 3 1-4 7-4 1 1-4z" fill="#376047"/>
<path transform="translate(499,344)" d="m0 0 4 1-9 4-7 1 1-2z" fill="#134348"/>
<path transform="translate(406,230)" d="m0 0 1 3-8 8h-2l2-4 5-5h2z" fill="#47829F"/>
<path transform="translate(480,822)" d="m0 0 5 1 1 9-3-1-4-8z" fill="#0D5663"/>
<path transform="translate(632,792)" d="m0 0 2 2-7 9 1 2-4 1v-5l5-2 2-5z" fill="#0F525A"/>
<path transform="translate(744,514)" d="m0 0v3h-2l-1 3-6 4-2-1 7-8z" fill="#345C46"/>
<path transform="translate(242,460)" d="m0 0 3 1 6 13-1 3-8-15z" fill="#6D9A5C"/>
<path transform="translate(215,432)" d="m0 0h1v9l-5 4h-3v-2h3v-2l2-1 1-5z" fill="#1D4744"/>
<path transform="translate(822,422)" d="m0 0 2 3 4 9v2h-3l-4-10z" fill="#325D4B"/>
<path transform="translate(391,404)" d="m0 0 5 3-4 6-3-2h2l-2-5z" fill="#4A839E"/>
<path transform="translate(471,344)" d="m0 0h5v2l4 1-8 3-3-1z" fill="#0C6079"/>
<path transform="translate(237,314)" d="m0 0h3l-1 7-2 2-1 5h-1l1-11-1-2z" fill="#416C4A"/>
<path transform="translate(230,664)" d="m0 0 2 1-11 11-3-1z" fill="#527E4D"/>
<path transform="translate(330,603)" d="m0 0 4 1-3 2-9 1-2-2z" fill="#719D5F"/>
<path transform="translate(696,519)" d="m0 0 5 3-2 4-4 2v-7z" fill="#1B4B50"/>
<path transform="translate(279,493)" d="m0 0h1l3 13 1 3-3 2-2-8z" fill="#1F4944"/>
<path transform="translate(425,373)" d="m0 0h4l1 5-2 6h-3v-2h2z" fill="#0C6077"/>
<path transform="translate(298,299)" d="m0 0 1 3-1 3 3-1-1 6-2-3-3 6-2-1z" fill="#396248"/>
<path transform="translate(678,280)" d="m0 0m-1 1m-2 1h2l-1 3-8 5h-2l2-4z" fill="#5D8B4F"/>
<path transform="translate(385,756)" d="m0 0h2l-2 6-6 10-1-2z" fill="#57844E"/>
<path transform="translate(273,733)" d="m0 0 6 5v2h2l-1 3-8-7z" fill="#216065"/>
<path transform="translate(475,713)" d="m0 0h3v2l-5 3-11 3v-2l12-5z" fill="#204A44"/>
<path transform="translate(397,703)" d="m0 0 11 1 6 3v1l-8-1-9-3z" fill="#1B4544"/>
<path transform="translate(729,562)" d="m0 0 6 1-5 4-3 2-3-1z" fill="#0E627E"/>
<path transform="translate(725,554)" d="m0 0 4 1-1 4-7 8v-3l4-5z" fill="#0E617C"/>
<path transform="translate(524,479)" d="m0 0 4 4v2l10 1-1 2h-6l-6-4z" fill="#336362"/>
<path transform="translate(353,459)" d="m0 0 2 2v3l-5 4-2-1 1-4z" fill="#0F5C6D"/>
<path transform="translate(800,359)" d="m0 0h2l7 12-2 1v-2h-2v-2l-2-1-3-5z" fill="#1D626F"/>
<path transform="translate(331,328)" d="m0 0h1l-1 11-1 5-3 1 2-10z" fill="#254E45"/>
<path transform="translate(616,325)" d="m0 0h8v2l-11 2-5-1 3-2z" fill="#2E5745"/>
<path transform="translate(672,317)" d="m0 0h10l4 2-16 1 2-1z" fill="#345C46"/>
<path transform="translate(364,277)" d="m0 0 3 1v8l-3 3z" fill="#0E627D"/>
<path transform="translate(703,227)" d="m0 0h3l-1 3-9 4h-2v-5l1 2 7-3z" fill="#1F606A"/>
<path transform="translate(630,735)" d="m0 0 1 2 2 1-2 12h-1l-1-10z" fill="#106485"/>
<path transform="translate(577,706)" d="m0 0 1 4-5 10-2-1 2-5 3-7z" fill="#46829F"/>
<path transform="translate(193,691)" d="m0 0 2 3h3l1 4-3 3-3-4z" fill="#446E4C"/>
<path transform="translate(687,682)" d="m0 0 5 5 2 4-5-2-4-6z" fill="#287399"/>
<path transform="translate(712,591)" d="m0 0h7l-5 8-4-3 5-2v-2z" fill="#23697A"/>
<path transform="translate(339,580)" d="m0 0 1 2h-3v2l-15-2v-1z" fill="#3A644E"/>
<path transform="translate(672,453)" d="m0 0 3 4 4 10-1 3-2-4-4-9z" fill="#205F6B"/>
<path transform="translate(755,448)" d="m0 0h2l2 12h-3l-1-5z" fill="#1D4744"/>
<path transform="translate(623,345)" d="m0 0 9 1 5 2-4 2-10-4z" fill="#285145"/>
<path transform="translate(458,339)" d="m0 0h2l-1 5-4 8-2-3z" fill="#0E5C71"/>
<path transform="translate(465,337)" d="m0 0 2 2-5 9h-2l-1 3-1-2z" fill="#0D617A"/>
<path transform="translate(734,246)" d="m0 0 7 1 5 2v2l2 1-5-1-9-3z" fill="#54814D"/>
<path transform="translate(601,201)" d="m0 0 3 3 2 4h-2l-1 3-4-8z" fill="#0C6077"/>
<path transform="translate(342,803)" d="m0 0 4 2 6 4-1 3-8-6z" fill="#1F606B"/>
<path transform="translate(433,761)" d="m0 0h2l-2 4-7 7-2-2 3-3h2v-2h2z" fill="#275145"/>
<path transform="translate(196,699)" d="m0 0 12 3 1 2-10-1-3-1z" fill="#2D5849"/>
<path transform="translate(374,626)" d="m0 0h10v4h-5l-1-2z" fill="#30758F"/>
<path transform="translate(826,477)" d="m0 0 1 2-4 6-5 6h-2l2-4z" fill="#1C4745"/>
<path transform="translate(247,465)" d="m0 0 5 4 2 7-2 2-5-11z" fill="#345C46"/>
<path transform="translate(269,448)" d="m0 0 2 1-1 5-1 2h-4l2-6z" fill="#75A163"/>
<path transform="translate(653,357)" d="m0 0 5 2 5 3-1 3-10-6z" fill="#234D44"/>
<path transform="translate(507,280)" d="m0 0v3l-2 3v2l-5 2-3 2 2-4z" fill="#0F6381"/>
<path transform="translate(423,268)" d="m0 0 1 4-3 10-1-2-2-1z" fill="#0C5C6E"/>
<path transform="translate(324,248)" d="m0 0 4 1-3 2-1 3-3 1v-2l-5 1 3-3h4z" fill="#0D5969"/>
<path transform="translate(504,711)" d="m0 0h3l2 4v5h-3l-3-8z" fill="#0C5E74"/>
<path transform="translate(678,676)" d="m0 0h4v2l4 2 1 3-4-1-5-4z" fill="#1D6C90"/>
<path transform="translate(346,600)" d="m0 0 1 3-3 9h-3l3-9z" fill="#345E4A"/>
<path transform="translate(830,435)" d="m0 0 6 1 7 6v2l-4-2-6-5z" fill="#276777"/>
<path transform="translate(497,408)" d="m0 0m-2 1 8 1-3 2-15-1v-1z" fill="#347790"/>
<path transform="translate(282,379)" d="m0 0 3 1-5 5h-2l-2 4-2-2z" fill="#295245"/>
<path transform="translate(472,356)" d="m0 0 2 2-3 1v2l-7 2 3-5z" fill="#0F515B"/>
<path transform="translate(322,329)" d="m0 0 3 1-5 3-2 1h-6l4-3z" fill="#264F45"/>
<path transform="translate(739,316)" d="m0 0h2v2h2l3 5-9-2v-2h3z" fill="#335C46"/>
<path transform="translate(565,731)" d="m0 0 1 2-6 10-3-1 4-6z" fill="#0D5E74"/>
<path transform="translate(672,705)" d="m0 0 2 2 2 6v5h-2l-2-8z" fill="#0E5560"/>
<path transform="translate(671,664)" d="m0 0 6 2 3 3-3 2-5-4z" fill="#0C6079"/>
<path transform="translate(580,653)" d="m0 0 2 1 1 5v9l-2-4-1-4z" fill="#43819E"/>
<path transform="translate(699,599)" d="m0 0 11 3-2 3-6-2-3-2z" fill="#115560"/>
<path transform="translate(753,578)" d="m0 0m-1 1v3l-5 4-4 3-2-1 8-7z" fill="#47839F"/>
<path transform="translate(695,572)" d="m0 0h7l-4 3-8 3 2-5z" fill="#0E545E"/>
<path transform="translate(811,470)" d="m0 0m-1 1v3l-8 5h-2v-2z" fill="#5F8D50"/>
</svg>
